G04 #@! TF.FileFunction,Copper,L2,Bot,Signal*
%FSLAX46Y46*%
G04 Gerber Fmt 4.6, Leading zero omitted, Abs format (unit mm)*
G04 Created by KiCad (PCBNEW 4.0.7) date 04/18/18 00:39:05*
%MOMM*%
%LPD*%
G01*
G04 APERTURE LIST*
%ADD10C,0.100000*%
%ADD11O,1.524000X2.000000*%
%ADD12C,1.600000*%
%ADD13R,1.600000X1.600000*%
%ADD14C,1.900000*%
%ADD15R,1.727200X1.727200*%
%ADD16O,1.727200X1.727200*%
%ADD17R,3.000000X1.000000*%
%ADD18R,2.000000X3.800000*%
%ADD19R,2.000000X1.500000*%
%ADD20R,1.700000X1.700000*%
%ADD21O,1.700000X1.700000*%
%ADD22O,2.000000X1.524000*%
%ADD23C,0.600000*%
%ADD24C,0.250000*%
G04 APERTURE END LIST*
D10*
D11*
X150622000Y-82042000D03*
X148082000Y-82042000D03*
X145542000Y-82042000D03*
D12*
X147320000Y-86360000D03*
X144780000Y-86360000D03*
X142240000Y-86360000D03*
X139700000Y-86360000D03*
X149860000Y-86360000D03*
X152400000Y-86360000D03*
X154940000Y-86360000D03*
X139700000Y-88900000D03*
X139700000Y-91440000D03*
X139700000Y-93980000D03*
X139700000Y-96520000D03*
X139700000Y-99060000D03*
X139700000Y-101600000D03*
X139700000Y-104140000D03*
X139700000Y-106680000D03*
X139700000Y-109220000D03*
X139700000Y-111760000D03*
X139700000Y-114300000D03*
X139700000Y-116840000D03*
X139700000Y-119380000D03*
X142240000Y-116840000D03*
X142240000Y-111760000D03*
X142240000Y-109220000D03*
X142240000Y-106680000D03*
X154940000Y-88900000D03*
X154940000Y-91440000D03*
X154940000Y-93980000D03*
X154940000Y-96520000D03*
X154940000Y-99060000D03*
X154940000Y-101600000D03*
X154940000Y-104140000D03*
X154940000Y-106680000D03*
X154940000Y-109220000D03*
X154940000Y-111760000D03*
X154940000Y-114300000D03*
X154940000Y-116840000D03*
D13*
X154940000Y-119380000D03*
D12*
X147320000Y-104140000D03*
X147320000Y-101600000D03*
X147320000Y-99060000D03*
X147320000Y-96520000D03*
X147320000Y-93980000D03*
X147320000Y-91440000D03*
X147320000Y-88900000D03*
X144780000Y-88900000D03*
X144780000Y-91440000D03*
X144780000Y-93980000D03*
X144780000Y-96520000D03*
X144780000Y-99060000D03*
X144780000Y-101600000D03*
X144780000Y-104140000D03*
D14*
X147320000Y-109220000D03*
X147320000Y-113030000D03*
D15*
X164338000Y-116840000D03*
D16*
X164338000Y-114300000D03*
X166878000Y-116840000D03*
X166878000Y-114300000D03*
X169418000Y-116840000D03*
X169418000Y-114300000D03*
X171958000Y-116840000D03*
X171958000Y-114300000D03*
D11*
X116840000Y-93980000D03*
X119380000Y-93980000D03*
X121920000Y-93980000D03*
X124460000Y-93980000D03*
X134874000Y-83312000D03*
X132334000Y-83312000D03*
X129794000Y-83312000D03*
X127254000Y-83312000D03*
D17*
X159766000Y-104380000D03*
X159766000Y-108980000D03*
X175768000Y-106666000D03*
X175768000Y-111266000D03*
D18*
X170536000Y-106680000D03*
D19*
X164236000Y-106680000D03*
X164236000Y-104380000D03*
X164236000Y-108980000D03*
D20*
X115062000Y-63246000D03*
D21*
X115062000Y-65786000D03*
X115062000Y-68326000D03*
X115062000Y-70866000D03*
X115062000Y-73406000D03*
X115062000Y-75946000D03*
X115062000Y-78486000D03*
X115062000Y-81026000D03*
X115062000Y-83566000D03*
X115062000Y-86106000D03*
D20*
X120904000Y-63246000D03*
D21*
X120904000Y-65786000D03*
X120904000Y-68326000D03*
X120904000Y-70866000D03*
X120904000Y-73406000D03*
X120904000Y-75946000D03*
X120904000Y-78486000D03*
X120904000Y-81026000D03*
X120904000Y-83566000D03*
X120904000Y-86106000D03*
D20*
X161290000Y-90678000D03*
D21*
X163830000Y-90678000D03*
D20*
X177292000Y-103378000D03*
D21*
X177292000Y-100838000D03*
D20*
X136398000Y-119126000D03*
D21*
X136398000Y-116586000D03*
D22*
X151130000Y-88900000D03*
X151130000Y-91440000D03*
X151130000Y-93980000D03*
X151130000Y-96520000D03*
X151130000Y-99060000D03*
X151130000Y-101600000D03*
D23*
X124714000Y-65532000D03*
X133604000Y-63246000D03*
X124460000Y-108966000D03*
X124968000Y-112776000D03*
X175006000Y-86360000D03*
X176530000Y-77978000D03*
X163830000Y-111760000D03*
X170180000Y-85090000D03*
X162560000Y-83820000D03*
X154940000Y-119380000D03*
X175514000Y-67564000D03*
X166116000Y-92710000D03*
X136144000Y-112776000D03*
X153162000Y-106680000D03*
X142240000Y-76200000D03*
X138938000Y-75946000D03*
X136906000Y-73914000D03*
X142494000Y-91440000D03*
X141478000Y-79756000D03*
X143510000Y-90170000D03*
X143510000Y-102870000D03*
X153162000Y-99060000D03*
X135128000Y-75946000D03*
X136906000Y-82296000D03*
X138430000Y-83820000D03*
X138430000Y-80772000D03*
X175260000Y-113030000D03*
D24*
X151130000Y-88900000D02*
X151130000Y-85852000D01*
X151130000Y-85852000D02*
X148082000Y-82804000D01*
X148082000Y-82804000D02*
X148082000Y-82042000D01*
X148082000Y-82042000D02*
X148082000Y-77724000D01*
X123952000Y-66294000D02*
X123952000Y-74676000D01*
X124714000Y-65532000D02*
X123952000Y-66294000D01*
X148082000Y-77724000D02*
X133604000Y-63246000D01*
X139700000Y-116840000D02*
X139446000Y-116840000D01*
X139446000Y-116840000D02*
X137668000Y-115062000D01*
X137668000Y-115062000D02*
X127254000Y-115062000D01*
X119380000Y-93980000D02*
X119380000Y-103886000D01*
X119380000Y-103886000D02*
X124460000Y-108966000D01*
X124968000Y-112776000D02*
X127254000Y-115062000D01*
X120904000Y-81026000D02*
X124968000Y-81026000D01*
X124968000Y-81026000D02*
X127254000Y-83312000D01*
X120904000Y-73406000D02*
X122682000Y-73406000D01*
X122682000Y-73406000D02*
X123952000Y-74676000D01*
X123952000Y-74676000D02*
X127254000Y-77978000D01*
X127254000Y-77978000D02*
X127254000Y-83312000D01*
X165100000Y-111760000D02*
X175274000Y-111760000D01*
X175274000Y-111760000D02*
X175768000Y-111266000D01*
X164236000Y-108980000D02*
X164236000Y-110896000D01*
X164236000Y-110896000D02*
X165100000Y-111760000D01*
X164236000Y-108980000D02*
X159766000Y-108980000D01*
X148844000Y-79248000D02*
X149098000Y-78994000D01*
X148082000Y-80010000D02*
X148844000Y-79248000D01*
X149098000Y-78994000D02*
X149352000Y-78994000D01*
X175006000Y-79502000D02*
X175006000Y-86360000D01*
X176530000Y-77978000D02*
X175006000Y-79502000D01*
X163830000Y-111760000D02*
X165100000Y-111760000D01*
X157480000Y-116840000D02*
X154940000Y-119380000D01*
X163830000Y-111760000D02*
X162560000Y-113030000D01*
X162560000Y-113030000D02*
X160020000Y-113030000D01*
X160020000Y-113030000D02*
X157480000Y-115570000D01*
X157480000Y-115570000D02*
X157480000Y-116840000D01*
X170180000Y-85090000D02*
X168910000Y-83820000D01*
X168910000Y-83820000D02*
X162560000Y-83820000D01*
X157734000Y-78994000D02*
X149352000Y-78994000D01*
X162560000Y-83820000D02*
X157734000Y-78994000D01*
X148082000Y-82042000D02*
X148082000Y-80010000D01*
X154940000Y-119380000D02*
X142240000Y-119380000D01*
X142240000Y-119380000D02*
X139700000Y-116840000D01*
X150622000Y-82042000D02*
X154178000Y-82042000D01*
X156464000Y-92456000D02*
X154940000Y-93980000D01*
X156464000Y-84328000D02*
X156464000Y-92456000D01*
X154178000Y-82042000D02*
X156464000Y-84328000D01*
X178816000Y-70866000D02*
X175514000Y-67564000D01*
X178816000Y-88900000D02*
X178816000Y-70866000D01*
X177800000Y-89916000D02*
X178816000Y-88900000D01*
X168910000Y-89916000D02*
X177800000Y-89916000D01*
X166116000Y-92710000D02*
X168910000Y-89916000D01*
X164236000Y-104380000D02*
X159766000Y-104380000D01*
X127254000Y-89916000D02*
X120904000Y-83566000D01*
X127254000Y-103886000D02*
X127254000Y-89916000D01*
X136144000Y-112776000D02*
X127254000Y-103886000D01*
X153162000Y-106680000D02*
X154432000Y-105410000D01*
X154432000Y-105410000D02*
X158736000Y-105410000D01*
X158736000Y-105410000D02*
X159766000Y-104380000D01*
X161290000Y-90678000D02*
X161290000Y-92710000D01*
X165354000Y-93980000D02*
X167132000Y-95758000D01*
X162560000Y-93980000D02*
X165354000Y-93980000D01*
X161290000Y-92710000D02*
X162560000Y-93980000D01*
X167132000Y-95758000D02*
X167132000Y-106680000D01*
X129794000Y-83312000D02*
X129794000Y-79502000D01*
X139192000Y-76200000D02*
X142240000Y-76200000D01*
X138938000Y-75946000D02*
X139192000Y-76200000D01*
X136398000Y-73406000D02*
X136906000Y-73914000D01*
X135890000Y-73406000D02*
X136398000Y-73406000D01*
X129794000Y-79502000D02*
X135890000Y-73406000D01*
X175768000Y-106666000D02*
X175768000Y-102108000D01*
X177038000Y-100838000D02*
X177292000Y-100838000D01*
X175768000Y-102108000D02*
X177038000Y-100838000D01*
X164236000Y-106680000D02*
X167132000Y-106680000D01*
X167132000Y-106680000D02*
X170536000Y-106680000D01*
X175768000Y-106666000D02*
X170550000Y-106666000D01*
X170550000Y-106666000D02*
X170536000Y-106680000D01*
X151130000Y-93980000D02*
X151384000Y-93980000D01*
X151384000Y-93980000D02*
X152654000Y-92710000D01*
X152654000Y-92710000D02*
X152654000Y-88646000D01*
X152654000Y-88646000D02*
X154940000Y-86360000D01*
X151130000Y-99060000D02*
X150114000Y-99060000D01*
X142494000Y-96266000D02*
X142494000Y-91440000D01*
X144018000Y-97790000D02*
X142494000Y-96266000D01*
X148844000Y-97790000D02*
X144018000Y-97790000D01*
X150114000Y-99060000D02*
X148844000Y-97790000D01*
X151130000Y-101600000D02*
X149860000Y-101600000D01*
X141732000Y-93472000D02*
X139700000Y-91440000D01*
X141732000Y-98044000D02*
X141732000Y-93472000D01*
X144018000Y-100330000D02*
X141732000Y-98044000D01*
X148590000Y-100330000D02*
X144018000Y-100330000D01*
X149860000Y-101600000D02*
X148590000Y-100330000D01*
X139700000Y-91440000D02*
X140462000Y-91440000D01*
X140970000Y-90170000D02*
X139700000Y-91440000D01*
X140970000Y-80264000D02*
X140970000Y-90170000D01*
X141478000Y-79756000D02*
X140970000Y-80264000D01*
X151130000Y-96520000D02*
X153162000Y-94488000D01*
X153162000Y-90678000D02*
X154940000Y-88900000D01*
X153162000Y-94488000D02*
X153162000Y-90678000D01*
X171958000Y-116840000D02*
X172974000Y-116840000D01*
X178816000Y-104648000D02*
X178816000Y-112268000D01*
X178816000Y-112268000D02*
X178562000Y-112522000D01*
X178816000Y-104648000D02*
X177546000Y-103378000D01*
X177800000Y-113284000D02*
X178562000Y-112522000D01*
X176530000Y-113284000D02*
X177800000Y-113284000D01*
X172974000Y-116840000D02*
X176530000Y-113284000D01*
X177292000Y-103378000D02*
X177546000Y-103378000D01*
X171958000Y-116840000D02*
X172466000Y-116840000D01*
X139700000Y-119380000D02*
X136652000Y-119380000D01*
X136652000Y-119380000D02*
X136398000Y-119126000D01*
X120904000Y-63246000D02*
X127508000Y-63246000D01*
X137668000Y-109728000D02*
X139700000Y-111760000D01*
X137668000Y-73406000D02*
X137668000Y-109728000D01*
X127508000Y-63246000D02*
X137668000Y-73406000D01*
X120904000Y-65786000D02*
X119888000Y-65786000D01*
X140970000Y-107950000D02*
X139700000Y-109220000D01*
X142748000Y-107950000D02*
X140970000Y-107950000D01*
X143510000Y-107188000D02*
X142748000Y-107950000D01*
X143510000Y-76200000D02*
X143510000Y-90170000D01*
X143510000Y-102870000D02*
X143510000Y-107188000D01*
X128778000Y-61468000D02*
X143510000Y-76200000D01*
X119126000Y-61468000D02*
X128778000Y-61468000D01*
X118364000Y-62230000D02*
X119126000Y-61468000D01*
X118364000Y-64262000D02*
X118364000Y-62230000D01*
X119888000Y-65786000D02*
X118364000Y-64262000D01*
X141986000Y-114300000D02*
X139700000Y-114300000D01*
X144272000Y-112014000D02*
X141986000Y-114300000D01*
X144272000Y-108712000D02*
X144272000Y-112014000D01*
X146050000Y-106934000D02*
X144272000Y-108712000D01*
X149860000Y-106934000D02*
X146050000Y-106934000D01*
X153162000Y-103632000D02*
X149860000Y-106934000D01*
X153162000Y-99060000D02*
X153162000Y-103632000D01*
X139700000Y-114300000D02*
X128524000Y-114300000D01*
X119634000Y-72136000D02*
X120904000Y-70866000D01*
X113538000Y-72136000D02*
X119634000Y-72136000D01*
X112014000Y-73660000D02*
X113538000Y-72136000D01*
X112014000Y-97790000D02*
X112014000Y-73660000D01*
X128524000Y-114300000D02*
X112014000Y-97790000D01*
X135128000Y-80518000D02*
X135128000Y-75946000D01*
X136906000Y-82296000D02*
X135128000Y-80518000D01*
X138430000Y-83820000D02*
X138430000Y-80772000D01*
X171196000Y-112522000D02*
X169418000Y-114300000D01*
X173228000Y-112522000D02*
X171196000Y-112522000D01*
X173736000Y-113030000D02*
X173228000Y-112522000D01*
X175260000Y-113030000D02*
X173736000Y-113030000D01*
M02*
