G04 #@! TF.FileFunction,Other,Fab,Top*
%FSLAX46Y46*%
G04 Gerber Fmt 4.6, Leading zero omitted, Abs format (unit mm)*
G04 Created by KiCad (PCBNEW 4.0.7) date 04/18/18 00:39:05*
%MOMM*%
%LPD*%
G01*
G04 APERTURE LIST*
%ADD10C,0.100000*%
%ADD11C,0.050000*%
%ADD12C,0.150000*%
%ADD13C,0.075000*%
G04 APERTURE END LIST*
D10*
X175910000Y-80788000D02*
X177150000Y-80788000D01*
X175910000Y-82788000D02*
X175910000Y-80788000D01*
X177150000Y-82788000D02*
X175910000Y-82788000D01*
X177150000Y-80788000D02*
X177150000Y-82788000D01*
X175910000Y-71898000D02*
X177150000Y-71898000D01*
X175910000Y-73898000D02*
X175910000Y-71898000D01*
X177150000Y-73898000D02*
X175910000Y-73898000D01*
X177150000Y-71898000D02*
X177150000Y-73898000D01*
D11*
X161036000Y-118618000D02*
X161036000Y-93980000D01*
X161036000Y-93980000D02*
X175260000Y-93980000D01*
X175260000Y-93980000D02*
X175260000Y-118618000D01*
X175260000Y-118618000D02*
X161036000Y-118618000D01*
D10*
X176780000Y-85590000D02*
X176280000Y-85590000D01*
X176780000Y-84590000D02*
X176780000Y-85590000D01*
X176280000Y-84590000D02*
X176780000Y-84590000D01*
X176280000Y-85590000D02*
X176280000Y-84590000D01*
X176780000Y-76700000D02*
X176280000Y-76700000D01*
X176780000Y-75700000D02*
X176780000Y-76700000D01*
X176280000Y-75700000D02*
X176780000Y-75700000D01*
X176280000Y-76700000D02*
X176280000Y-75700000D01*
X114427000Y-61976000D02*
X116332000Y-61976000D01*
X116332000Y-61976000D02*
X116332000Y-87376000D01*
X116332000Y-87376000D02*
X113792000Y-87376000D01*
X113792000Y-87376000D02*
X113792000Y-62611000D01*
X113792000Y-62611000D02*
X114427000Y-61976000D01*
X120269000Y-61976000D02*
X122174000Y-61976000D01*
X122174000Y-61976000D02*
X122174000Y-87376000D01*
X122174000Y-87376000D02*
X119634000Y-87376000D01*
X119634000Y-87376000D02*
X119634000Y-62611000D01*
X119634000Y-62611000D02*
X120269000Y-61976000D01*
X160020000Y-91313000D02*
X160020000Y-89408000D01*
X160020000Y-89408000D02*
X165100000Y-89408000D01*
X165100000Y-89408000D02*
X165100000Y-91948000D01*
X165100000Y-91948000D02*
X160655000Y-91948000D01*
X160655000Y-91948000D02*
X160020000Y-91313000D01*
X177927000Y-104648000D02*
X176022000Y-104648000D01*
X176022000Y-104648000D02*
X176022000Y-99568000D01*
X176022000Y-99568000D02*
X178562000Y-99568000D01*
X178562000Y-99568000D02*
X178562000Y-104013000D01*
X178562000Y-104013000D02*
X177927000Y-104648000D01*
X137033000Y-120396000D02*
X135128000Y-120396000D01*
X135128000Y-120396000D02*
X135128000Y-115316000D01*
X135128000Y-115316000D02*
X137668000Y-115316000D01*
X137668000Y-115316000D02*
X137668000Y-119761000D01*
X137668000Y-119761000D02*
X137033000Y-120396000D01*
X178030000Y-92182000D02*
X175030000Y-92182000D01*
X175030000Y-92182000D02*
X175030000Y-89682000D01*
X175030000Y-89682000D02*
X178030000Y-89682000D01*
X178030000Y-89682000D02*
X178030000Y-92182000D01*
X177280000Y-90932000D02*
G75*
G03X177280000Y-90932000I-750000J0D01*
G01*
X168426000Y-89682000D02*
X171426000Y-89682000D01*
X171426000Y-89682000D02*
X171426000Y-92182000D01*
X171426000Y-92182000D02*
X168426000Y-92182000D01*
X168426000Y-92182000D02*
X168426000Y-89682000D01*
X170676000Y-90932000D02*
G75*
G03X170676000Y-90932000I-750000J0D01*
G01*
D12*
X141926286Y-76362000D02*
X141812000Y-76304857D01*
X141640571Y-76304857D01*
X141469143Y-76362000D01*
X141354857Y-76476286D01*
X141297714Y-76590571D01*
X141240571Y-76819143D01*
X141240571Y-76990571D01*
X141297714Y-77219143D01*
X141354857Y-77333429D01*
X141469143Y-77447714D01*
X141640571Y-77504857D01*
X141754857Y-77504857D01*
X141926286Y-77447714D01*
X141983429Y-77390571D01*
X141983429Y-76990571D01*
X141754857Y-76990571D01*
X142497714Y-77504857D02*
X142497714Y-76304857D01*
X142954857Y-76304857D01*
X143069143Y-76362000D01*
X143126286Y-76419143D01*
X143183429Y-76533429D01*
X143183429Y-76704857D01*
X143126286Y-76819143D01*
X143069143Y-76876286D01*
X142954857Y-76933429D01*
X142497714Y-76933429D01*
X143640571Y-77447714D02*
X143812000Y-77504857D01*
X144097714Y-77504857D01*
X144212000Y-77447714D01*
X144269143Y-77390571D01*
X144326286Y-77276286D01*
X144326286Y-77162000D01*
X144269143Y-77047714D01*
X144212000Y-76990571D01*
X144097714Y-76933429D01*
X143869143Y-76876286D01*
X143754857Y-76819143D01*
X143697714Y-76762000D01*
X143640571Y-76647714D01*
X143640571Y-76533429D01*
X143697714Y-76419143D01*
X143754857Y-76362000D01*
X143869143Y-76304857D01*
X144154857Y-76304857D01*
X144326286Y-76362000D01*
X144554857Y-77619143D02*
X145469143Y-77619143D01*
X145754857Y-77504857D02*
X145754857Y-76304857D01*
X146154857Y-77162000D01*
X146554857Y-76304857D01*
X146554857Y-77504857D01*
X147354858Y-76304857D02*
X147583429Y-76304857D01*
X147697715Y-76362000D01*
X147812001Y-76476286D01*
X147869143Y-76704857D01*
X147869143Y-77104857D01*
X147812001Y-77333429D01*
X147697715Y-77447714D01*
X147583429Y-77504857D01*
X147354858Y-77504857D01*
X147240572Y-77447714D01*
X147126286Y-77333429D01*
X147069143Y-77104857D01*
X147069143Y-76704857D01*
X147126286Y-76476286D01*
X147240572Y-76362000D01*
X147354858Y-76304857D01*
X148383429Y-77504857D02*
X148383429Y-76304857D01*
X148669144Y-76304857D01*
X148840572Y-76362000D01*
X148954858Y-76476286D01*
X149012001Y-76590571D01*
X149069144Y-76819143D01*
X149069144Y-76990571D01*
X149012001Y-77219143D01*
X148954858Y-77333429D01*
X148840572Y-77447714D01*
X148669144Y-77504857D01*
X148383429Y-77504857D01*
X149583429Y-76304857D02*
X149583429Y-77276286D01*
X149640572Y-77390571D01*
X149697715Y-77447714D01*
X149812001Y-77504857D01*
X150040572Y-77504857D01*
X150154858Y-77447714D01*
X150212001Y-77390571D01*
X150269144Y-77276286D01*
X150269144Y-76304857D01*
X151412001Y-77504857D02*
X150840572Y-77504857D01*
X150840572Y-76304857D01*
X151812001Y-76876286D02*
X152212001Y-76876286D01*
X152383430Y-77504857D02*
X151812001Y-77504857D01*
X151812001Y-76304857D01*
X152383430Y-76304857D01*
X175232381Y-81478476D02*
X174756190Y-81811810D01*
X175232381Y-82049905D02*
X174232381Y-82049905D01*
X174232381Y-81668952D01*
X174280000Y-81573714D01*
X174327619Y-81526095D01*
X174422857Y-81478476D01*
X174565714Y-81478476D01*
X174660952Y-81526095D01*
X174708571Y-81573714D01*
X174756190Y-81668952D01*
X174756190Y-82049905D01*
D13*
X176756190Y-81871333D02*
X176518095Y-82038000D01*
X176756190Y-82157047D02*
X176256190Y-82157047D01*
X176256190Y-81966571D01*
X176280000Y-81918952D01*
X176303810Y-81895143D01*
X176351429Y-81871333D01*
X176422857Y-81871333D01*
X176470476Y-81895143D01*
X176494286Y-81918952D01*
X176518095Y-81966571D01*
X176518095Y-82157047D01*
X176756190Y-81395143D02*
X176756190Y-81680857D01*
X176756190Y-81538000D02*
X176256190Y-81538000D01*
X176327619Y-81585619D01*
X176375238Y-81633238D01*
X176399048Y-81680857D01*
D12*
X175232381Y-72588476D02*
X174756190Y-72921810D01*
X175232381Y-73159905D02*
X174232381Y-73159905D01*
X174232381Y-72778952D01*
X174280000Y-72683714D01*
X174327619Y-72636095D01*
X174422857Y-72588476D01*
X174565714Y-72588476D01*
X174660952Y-72636095D01*
X174708571Y-72683714D01*
X174756190Y-72778952D01*
X174756190Y-73159905D01*
D13*
X176756190Y-72981333D02*
X176518095Y-73148000D01*
X176756190Y-73267047D02*
X176256190Y-73267047D01*
X176256190Y-73076571D01*
X176280000Y-73028952D01*
X176303810Y-73005143D01*
X176351429Y-72981333D01*
X176422857Y-72981333D01*
X176470476Y-73005143D01*
X176494286Y-73028952D01*
X176518095Y-73076571D01*
X176518095Y-73267047D01*
X176303810Y-72790857D02*
X176280000Y-72767047D01*
X176256190Y-72719428D01*
X176256190Y-72600381D01*
X176280000Y-72552762D01*
X176303810Y-72528952D01*
X176351429Y-72505143D01*
X176399048Y-72505143D01*
X176470476Y-72528952D01*
X176756190Y-72814666D01*
X176756190Y-72505143D01*
D12*
X156932381Y-106441429D02*
X156932381Y-105870000D01*
X157932381Y-106155715D02*
X156932381Y-106155715D01*
X157884762Y-105155714D02*
X157932381Y-105250952D01*
X157932381Y-105441429D01*
X157884762Y-105536667D01*
X157789524Y-105584286D01*
X157408571Y-105584286D01*
X157313333Y-105536667D01*
X157265714Y-105441429D01*
X157265714Y-105250952D01*
X157313333Y-105155714D01*
X157408571Y-105108095D01*
X157503810Y-105108095D01*
X157599048Y-105584286D01*
X157884762Y-104298571D02*
X157932381Y-104393809D01*
X157932381Y-104584286D01*
X157884762Y-104679524D01*
X157789524Y-104727143D01*
X157408571Y-104727143D01*
X157313333Y-104679524D01*
X157265714Y-104584286D01*
X157265714Y-104393809D01*
X157313333Y-104298571D01*
X157408571Y-104250952D01*
X157503810Y-104250952D01*
X157599048Y-104727143D01*
X157265714Y-103822381D02*
X157932381Y-103822381D01*
X157360952Y-103822381D02*
X157313333Y-103774762D01*
X157265714Y-103679524D01*
X157265714Y-103536666D01*
X157313333Y-103441428D01*
X157408571Y-103393809D01*
X157932381Y-103393809D01*
X157884762Y-102965238D02*
X157932381Y-102870000D01*
X157932381Y-102679524D01*
X157884762Y-102584285D01*
X157789524Y-102536666D01*
X157741905Y-102536666D01*
X157646667Y-102584285D01*
X157599048Y-102679524D01*
X157599048Y-102822381D01*
X157551429Y-102917619D01*
X157456190Y-102965238D01*
X157408571Y-102965238D01*
X157313333Y-102917619D01*
X157265714Y-102822381D01*
X157265714Y-102679524D01*
X157313333Y-102584285D01*
X157265714Y-102203333D02*
X157932381Y-101965238D01*
X157265714Y-101727142D02*
X157932381Y-101965238D01*
X158170476Y-102060476D01*
X158218095Y-102108095D01*
X158265714Y-102203333D01*
X156932381Y-101441428D02*
X156932381Y-100822380D01*
X157313333Y-101155714D01*
X157313333Y-101012856D01*
X157360952Y-100917618D01*
X157408571Y-100869999D01*
X157503810Y-100822380D01*
X157741905Y-100822380D01*
X157837143Y-100869999D01*
X157884762Y-100917618D01*
X157932381Y-101012856D01*
X157932381Y-101298571D01*
X157884762Y-101393809D01*
X157837143Y-101441428D01*
X157837143Y-100393809D02*
X157884762Y-100346190D01*
X157932381Y-100393809D01*
X157884762Y-100441428D01*
X157837143Y-100393809D01*
X157932381Y-100393809D01*
X157027619Y-99965238D02*
X156980000Y-99917619D01*
X156932381Y-99822381D01*
X156932381Y-99584285D01*
X156980000Y-99489047D01*
X157027619Y-99441428D01*
X157122857Y-99393809D01*
X157218095Y-99393809D01*
X157360952Y-99441428D01*
X157932381Y-100012857D01*
X157932381Y-99393809D01*
X167822571Y-109219429D02*
X167822571Y-108886095D01*
X168346381Y-108743238D02*
X168346381Y-109219429D01*
X167346381Y-109219429D01*
X167346381Y-108743238D01*
X168298762Y-108362286D02*
X168346381Y-108219429D01*
X168346381Y-107981333D01*
X168298762Y-107886095D01*
X168251143Y-107838476D01*
X168155905Y-107790857D01*
X168060667Y-107790857D01*
X167965429Y-107838476D01*
X167917810Y-107886095D01*
X167870190Y-107981333D01*
X167822571Y-108171810D01*
X167774952Y-108267048D01*
X167727333Y-108314667D01*
X167632095Y-108362286D01*
X167536857Y-108362286D01*
X167441619Y-108314667D01*
X167394000Y-108267048D01*
X167346381Y-108171810D01*
X167346381Y-107933714D01*
X167394000Y-107790857D01*
X168346381Y-107362286D02*
X167346381Y-107362286D01*
X167346381Y-106981333D01*
X167394000Y-106886095D01*
X167441619Y-106838476D01*
X167536857Y-106790857D01*
X167679714Y-106790857D01*
X167774952Y-106838476D01*
X167822571Y-106886095D01*
X167870190Y-106981333D01*
X167870190Y-107362286D01*
X167965429Y-106362286D02*
X167965429Y-105600381D01*
X167346381Y-104933715D02*
X167346381Y-104838476D01*
X167394000Y-104743238D01*
X167441619Y-104695619D01*
X167536857Y-104648000D01*
X167727333Y-104600381D01*
X167965429Y-104600381D01*
X168155905Y-104648000D01*
X168251143Y-104695619D01*
X168298762Y-104743238D01*
X168346381Y-104838476D01*
X168346381Y-104933715D01*
X168298762Y-105028953D01*
X168251143Y-105076572D01*
X168155905Y-105124191D01*
X167965429Y-105171810D01*
X167727333Y-105171810D01*
X167536857Y-105124191D01*
X167441619Y-105076572D01*
X167394000Y-105028953D01*
X167346381Y-104933715D01*
X168346381Y-103648000D02*
X168346381Y-104219429D01*
X168346381Y-103933715D02*
X167346381Y-103933715D01*
X167489238Y-104028953D01*
X167584476Y-104124191D01*
X167632095Y-104219429D01*
X167679714Y-103314667D02*
X168346381Y-103076572D01*
X167679714Y-102838476D01*
X167346381Y-102267048D02*
X167346381Y-102171809D01*
X167394000Y-102076571D01*
X167441619Y-102028952D01*
X167536857Y-101981333D01*
X167727333Y-101933714D01*
X167965429Y-101933714D01*
X168155905Y-101981333D01*
X168251143Y-102028952D01*
X168298762Y-102076571D01*
X168346381Y-102171809D01*
X168346381Y-102267048D01*
X168298762Y-102362286D01*
X168251143Y-102409905D01*
X168155905Y-102457524D01*
X167965429Y-102505143D01*
X167727333Y-102505143D01*
X167536857Y-102457524D01*
X167441619Y-102409905D01*
X167394000Y-102362286D01*
X167346381Y-102267048D01*
X168346381Y-101457524D02*
X168346381Y-101267048D01*
X168298762Y-101171809D01*
X168251143Y-101124190D01*
X168108286Y-101028952D01*
X167917810Y-100981333D01*
X167536857Y-100981333D01*
X167441619Y-101028952D01*
X167394000Y-101076571D01*
X167346381Y-101171809D01*
X167346381Y-101362286D01*
X167394000Y-101457524D01*
X167441619Y-101505143D01*
X167536857Y-101552762D01*
X167774952Y-101552762D01*
X167870190Y-101505143D01*
X167917810Y-101457524D01*
X167965429Y-101362286D01*
X167965429Y-101171809D01*
X167917810Y-101076571D01*
X167870190Y-101028952D01*
X167774952Y-100981333D01*
X167346381Y-100362286D02*
X167346381Y-100267047D01*
X167394000Y-100171809D01*
X167441619Y-100124190D01*
X167536857Y-100076571D01*
X167727333Y-100028952D01*
X167965429Y-100028952D01*
X168155905Y-100076571D01*
X168251143Y-100124190D01*
X168298762Y-100171809D01*
X168346381Y-100267047D01*
X168346381Y-100362286D01*
X168298762Y-100457524D01*
X168251143Y-100505143D01*
X168155905Y-100552762D01*
X167965429Y-100600381D01*
X167727333Y-100600381D01*
X167536857Y-100552762D01*
X167441619Y-100505143D01*
X167394000Y-100457524D01*
X167346381Y-100362286D01*
X178432381Y-85732857D02*
X178432381Y-86209048D01*
X177432381Y-86209048D01*
X177908571Y-85399524D02*
X177908571Y-85066190D01*
X178432381Y-84923333D02*
X178432381Y-85399524D01*
X177432381Y-85399524D01*
X177432381Y-84923333D01*
X178432381Y-84494762D02*
X177432381Y-84494762D01*
X177432381Y-84256667D01*
X177480000Y-84113809D01*
X177575238Y-84018571D01*
X177670476Y-83970952D01*
X177860952Y-83923333D01*
X178003810Y-83923333D01*
X178194286Y-83970952D01*
X178289524Y-84018571D01*
X178384762Y-84113809D01*
X178432381Y-84256667D01*
X178432381Y-84494762D01*
X175632381Y-85828095D02*
X174632381Y-85828095D01*
X174632381Y-85590000D01*
X174680000Y-85447142D01*
X174775238Y-85351904D01*
X174870476Y-85304285D01*
X175060952Y-85256666D01*
X175203810Y-85256666D01*
X175394286Y-85304285D01*
X175489524Y-85351904D01*
X175584762Y-85447142D01*
X175632381Y-85590000D01*
X175632381Y-85828095D01*
X175632381Y-84304285D02*
X175632381Y-84875714D01*
X175632381Y-84590000D02*
X174632381Y-84590000D01*
X174775238Y-84685238D01*
X174870476Y-84780476D01*
X174918095Y-84875714D01*
X178432381Y-76842857D02*
X178432381Y-77319048D01*
X177432381Y-77319048D01*
X177908571Y-76509524D02*
X177908571Y-76176190D01*
X178432381Y-76033333D02*
X178432381Y-76509524D01*
X177432381Y-76509524D01*
X177432381Y-76033333D01*
X178432381Y-75604762D02*
X177432381Y-75604762D01*
X177432381Y-75366667D01*
X177480000Y-75223809D01*
X177575238Y-75128571D01*
X177670476Y-75080952D01*
X177860952Y-75033333D01*
X178003810Y-75033333D01*
X178194286Y-75080952D01*
X178289524Y-75128571D01*
X178384762Y-75223809D01*
X178432381Y-75366667D01*
X178432381Y-75604762D01*
X175632381Y-76938095D02*
X174632381Y-76938095D01*
X174632381Y-76700000D01*
X174680000Y-76557142D01*
X174775238Y-76461904D01*
X174870476Y-76414285D01*
X175060952Y-76366666D01*
X175203810Y-76366666D01*
X175394286Y-76414285D01*
X175489524Y-76461904D01*
X175584762Y-76557142D01*
X175632381Y-76700000D01*
X175632381Y-76938095D01*
X174727619Y-75985714D02*
X174680000Y-75938095D01*
X174632381Y-75842857D01*
X174632381Y-75604761D01*
X174680000Y-75509523D01*
X174727619Y-75461904D01*
X174822857Y-75414285D01*
X174918095Y-75414285D01*
X175060952Y-75461904D01*
X175632381Y-76033333D01*
X175632381Y-75414285D01*
X113192857Y-89512857D02*
X113421428Y-89512857D01*
X113535714Y-89570000D01*
X113650000Y-89684286D01*
X113707142Y-89912857D01*
X113707142Y-90312857D01*
X113650000Y-90541429D01*
X113535714Y-90655714D01*
X113421428Y-90712857D01*
X113192857Y-90712857D01*
X113078571Y-90655714D01*
X112964285Y-90541429D01*
X112907142Y-90312857D01*
X112907142Y-89912857D01*
X112964285Y-89684286D01*
X113078571Y-89570000D01*
X113192857Y-89512857D01*
X114792857Y-90712857D02*
X114221428Y-90712857D01*
X114221428Y-89512857D01*
X115192857Y-90084286D02*
X115592857Y-90084286D01*
X115764286Y-90712857D02*
X115192857Y-90712857D01*
X115192857Y-89512857D01*
X115764286Y-89512857D01*
X116278571Y-90712857D02*
X116278571Y-89512857D01*
X116564286Y-89512857D01*
X116735714Y-89570000D01*
X116850000Y-89684286D01*
X116907143Y-89798571D01*
X116964286Y-90027143D01*
X116964286Y-90198571D01*
X116907143Y-90427143D01*
X116850000Y-90541429D01*
X116735714Y-90655714D01*
X116564286Y-90712857D01*
X116278571Y-90712857D01*
X117192857Y-90827143D02*
X118107143Y-90827143D01*
X119021429Y-90712857D02*
X118335714Y-90712857D01*
X118678572Y-90712857D02*
X118678572Y-89512857D01*
X118564286Y-89684286D01*
X118450000Y-89798571D01*
X118335714Y-89855714D01*
X119478571Y-89627143D02*
X119535714Y-89570000D01*
X119650000Y-89512857D01*
X119935714Y-89512857D01*
X120050000Y-89570000D01*
X120107143Y-89627143D01*
X120164286Y-89741429D01*
X120164286Y-89855714D01*
X120107143Y-90027143D01*
X119421429Y-90712857D01*
X120164286Y-90712857D01*
X120850000Y-90027143D02*
X120735714Y-89970000D01*
X120678571Y-89912857D01*
X120621428Y-89798571D01*
X120621428Y-89741429D01*
X120678571Y-89627143D01*
X120735714Y-89570000D01*
X120850000Y-89512857D01*
X121078571Y-89512857D01*
X121192857Y-89570000D01*
X121250000Y-89627143D01*
X121307143Y-89741429D01*
X121307143Y-89798571D01*
X121250000Y-89912857D01*
X121192857Y-89970000D01*
X121078571Y-90027143D01*
X120850000Y-90027143D01*
X120735714Y-90084286D01*
X120678571Y-90141429D01*
X120621428Y-90255714D01*
X120621428Y-90484286D01*
X120678571Y-90598571D01*
X120735714Y-90655714D01*
X120850000Y-90712857D01*
X121078571Y-90712857D01*
X121192857Y-90655714D01*
X121250000Y-90598571D01*
X121307143Y-90484286D01*
X121307143Y-90255714D01*
X121250000Y-90141429D01*
X121192857Y-90084286D01*
X121078571Y-90027143D01*
X121707143Y-90712857D02*
X122335714Y-89912857D01*
X121707143Y-89912857D02*
X122335714Y-90712857D01*
X123307143Y-89512857D02*
X123078572Y-89512857D01*
X122964286Y-89570000D01*
X122907143Y-89627143D01*
X122792857Y-89798571D01*
X122735714Y-90027143D01*
X122735714Y-90484286D01*
X122792857Y-90598571D01*
X122850000Y-90655714D01*
X122964286Y-90712857D01*
X123192857Y-90712857D01*
X123307143Y-90655714D01*
X123364286Y-90598571D01*
X123421429Y-90484286D01*
X123421429Y-90198571D01*
X123364286Y-90084286D01*
X123307143Y-90027143D01*
X123192857Y-89970000D01*
X122964286Y-89970000D01*
X122850000Y-90027143D01*
X122792857Y-90084286D01*
X122735714Y-90198571D01*
X124450000Y-89912857D02*
X124450000Y-90712857D01*
X124164286Y-89455714D02*
X123878571Y-90312857D01*
X124621429Y-90312857D01*
X124792857Y-90827143D02*
X125707143Y-90827143D01*
X125992857Y-90712857D02*
X125992857Y-89512857D01*
X126507143Y-89627143D02*
X126564286Y-89570000D01*
X126678572Y-89512857D01*
X126964286Y-89512857D01*
X127078572Y-89570000D01*
X127135715Y-89627143D01*
X127192858Y-89741429D01*
X127192858Y-89855714D01*
X127135715Y-90027143D01*
X126450001Y-90712857D01*
X127192858Y-90712857D01*
X128392858Y-90598571D02*
X128335715Y-90655714D01*
X128164286Y-90712857D01*
X128050000Y-90712857D01*
X127878572Y-90655714D01*
X127764286Y-90541429D01*
X127707143Y-90427143D01*
X127650000Y-90198571D01*
X127650000Y-90027143D01*
X127707143Y-89798571D01*
X127764286Y-89684286D01*
X127878572Y-89570000D01*
X128050000Y-89512857D01*
X128164286Y-89512857D01*
X128335715Y-89570000D01*
X128392858Y-89627143D01*
X123892571Y-87664857D02*
X123321142Y-87664857D01*
X123321142Y-86464857D01*
X124235428Y-87607714D02*
X124406857Y-87664857D01*
X124692571Y-87664857D01*
X124806857Y-87607714D01*
X124864000Y-87550571D01*
X124921143Y-87436286D01*
X124921143Y-87322000D01*
X124864000Y-87207714D01*
X124806857Y-87150571D01*
X124692571Y-87093429D01*
X124464000Y-87036286D01*
X124349714Y-86979143D01*
X124292571Y-86922000D01*
X124235428Y-86807714D01*
X124235428Y-86693429D01*
X124292571Y-86579143D01*
X124349714Y-86522000D01*
X124464000Y-86464857D01*
X124749714Y-86464857D01*
X124921143Y-86522000D01*
X125435428Y-87664857D02*
X125435428Y-86464857D01*
X125835428Y-87322000D01*
X126235428Y-86464857D01*
X126235428Y-87664857D01*
X126864000Y-87664857D02*
X127092572Y-87664857D01*
X127206857Y-87607714D01*
X127264000Y-87550571D01*
X127378286Y-87379143D01*
X127435429Y-87150571D01*
X127435429Y-86693429D01*
X127378286Y-86579143D01*
X127321143Y-86522000D01*
X127206857Y-86464857D01*
X126978286Y-86464857D01*
X126864000Y-86522000D01*
X126806857Y-86579143D01*
X126749714Y-86693429D01*
X126749714Y-86979143D01*
X126806857Y-87093429D01*
X126864000Y-87150571D01*
X126978286Y-87207714D01*
X127206857Y-87207714D01*
X127321143Y-87150571D01*
X127378286Y-87093429D01*
X127435429Y-86979143D01*
X127949714Y-87664857D02*
X127949714Y-86464857D01*
X128235429Y-86464857D01*
X128406857Y-86522000D01*
X128521143Y-86636286D01*
X128578286Y-86750571D01*
X128635429Y-86979143D01*
X128635429Y-87150571D01*
X128578286Y-87379143D01*
X128521143Y-87493429D01*
X128406857Y-87607714D01*
X128235429Y-87664857D01*
X127949714Y-87664857D01*
X129092571Y-87607714D02*
X129264000Y-87664857D01*
X129549714Y-87664857D01*
X129664000Y-87607714D01*
X129721143Y-87550571D01*
X129778286Y-87436286D01*
X129778286Y-87322000D01*
X129721143Y-87207714D01*
X129664000Y-87150571D01*
X129549714Y-87093429D01*
X129321143Y-87036286D01*
X129206857Y-86979143D01*
X129149714Y-86922000D01*
X129092571Y-86807714D01*
X129092571Y-86693429D01*
X129149714Y-86579143D01*
X129206857Y-86522000D01*
X129321143Y-86464857D01*
X129606857Y-86464857D01*
X129778286Y-86522000D01*
X130921143Y-87664857D02*
X130235428Y-87664857D01*
X130578286Y-87664857D02*
X130578286Y-86464857D01*
X130464000Y-86636286D01*
X130349714Y-86750571D01*
X130235428Y-86807714D01*
X131149714Y-87779143D02*
X132064000Y-87779143D01*
X132749714Y-87036286D02*
X132921143Y-87093429D01*
X132978286Y-87150571D01*
X133035429Y-87264857D01*
X133035429Y-87436286D01*
X132978286Y-87550571D01*
X132921143Y-87607714D01*
X132806857Y-87664857D01*
X132349714Y-87664857D01*
X132349714Y-86464857D01*
X132749714Y-86464857D01*
X132864000Y-86522000D01*
X132921143Y-86579143D01*
X132978286Y-86693429D01*
X132978286Y-86807714D01*
X132921143Y-86922000D01*
X132864000Y-86979143D01*
X132749714Y-87036286D01*
X132349714Y-87036286D01*
X134235429Y-87664857D02*
X133835429Y-87093429D01*
X133549714Y-87664857D02*
X133549714Y-86464857D01*
X134006857Y-86464857D01*
X134121143Y-86522000D01*
X134178286Y-86579143D01*
X134235429Y-86693429D01*
X134235429Y-86864857D01*
X134178286Y-86979143D01*
X134121143Y-87036286D01*
X134006857Y-87093429D01*
X133549714Y-87093429D01*
X134749714Y-87664857D02*
X134749714Y-86464857D01*
X135435429Y-87664857D02*
X134921143Y-86979143D01*
X135435429Y-86464857D02*
X134749714Y-87150571D01*
X136178286Y-86464857D02*
X136406857Y-86464857D01*
X136521143Y-86522000D01*
X136635429Y-86636286D01*
X136692571Y-86864857D01*
X136692571Y-87264857D01*
X136635429Y-87493429D01*
X136521143Y-87607714D01*
X136406857Y-87664857D01*
X136178286Y-87664857D01*
X136064000Y-87607714D01*
X135949714Y-87493429D01*
X135892571Y-87264857D01*
X135892571Y-86864857D01*
X135949714Y-86636286D01*
X136064000Y-86522000D01*
X136178286Y-86464857D01*
X137206857Y-86464857D02*
X137206857Y-87436286D01*
X137264000Y-87550571D01*
X137321143Y-87607714D01*
X137435429Y-87664857D01*
X137664000Y-87664857D01*
X137778286Y-87607714D01*
X137835429Y-87550571D01*
X137892572Y-87436286D01*
X137892572Y-86464857D01*
X138292572Y-86464857D02*
X138978286Y-86464857D01*
X138635429Y-87664857D02*
X138635429Y-86464857D01*
X111323905Y-88793143D02*
X111276286Y-88840762D01*
X111133429Y-88888381D01*
X111038191Y-88888381D01*
X110895333Y-88840762D01*
X110800095Y-88745524D01*
X110752476Y-88650286D01*
X110704857Y-88459810D01*
X110704857Y-88316952D01*
X110752476Y-88126476D01*
X110800095Y-88031238D01*
X110895333Y-87936000D01*
X111038191Y-87888381D01*
X111133429Y-87888381D01*
X111276286Y-87936000D01*
X111323905Y-87983619D01*
X111895333Y-88888381D02*
X111800095Y-88840762D01*
X111752476Y-88793143D01*
X111704857Y-88697905D01*
X111704857Y-88412190D01*
X111752476Y-88316952D01*
X111800095Y-88269333D01*
X111895333Y-88221714D01*
X112038191Y-88221714D01*
X112133429Y-88269333D01*
X112181048Y-88316952D01*
X112228667Y-88412190D01*
X112228667Y-88697905D01*
X112181048Y-88793143D01*
X112133429Y-88840762D01*
X112038191Y-88888381D01*
X111895333Y-88888381D01*
X112657238Y-88221714D02*
X112657238Y-88888381D01*
X112657238Y-88316952D02*
X112704857Y-88269333D01*
X112800095Y-88221714D01*
X112942953Y-88221714D01*
X113038191Y-88269333D01*
X113085810Y-88364571D01*
X113085810Y-88888381D01*
X113562000Y-88221714D02*
X113562000Y-88888381D01*
X113562000Y-88316952D02*
X113609619Y-88269333D01*
X113704857Y-88221714D01*
X113847715Y-88221714D01*
X113942953Y-88269333D01*
X113990572Y-88364571D01*
X113990572Y-88888381D01*
X114228667Y-88983619D02*
X114990572Y-88983619D01*
X115419143Y-87888381D02*
X115514382Y-87888381D01*
X115609620Y-87936000D01*
X115657239Y-87983619D01*
X115704858Y-88078857D01*
X115752477Y-88269333D01*
X115752477Y-88507429D01*
X115704858Y-88697905D01*
X115657239Y-88793143D01*
X115609620Y-88840762D01*
X115514382Y-88888381D01*
X115419143Y-88888381D01*
X115323905Y-88840762D01*
X115276286Y-88793143D01*
X115228667Y-88697905D01*
X115181048Y-88507429D01*
X115181048Y-88269333D01*
X115228667Y-88078857D01*
X115276286Y-87983619D01*
X115323905Y-87936000D01*
X115419143Y-87888381D01*
X116704858Y-88888381D02*
X116133429Y-88888381D01*
X116419143Y-88888381D02*
X116419143Y-87888381D01*
X116323905Y-88031238D01*
X116228667Y-88126476D01*
X116133429Y-88174095D01*
X117038191Y-88888381D02*
X117562001Y-88221714D01*
X117038191Y-88221714D02*
X117562001Y-88888381D01*
X118466763Y-88888381D02*
X117895334Y-88888381D01*
X118181048Y-88888381D02*
X118181048Y-87888381D01*
X118085810Y-88031238D01*
X117990572Y-88126476D01*
X117895334Y-88174095D01*
X119085810Y-87888381D02*
X119181049Y-87888381D01*
X119276287Y-87936000D01*
X119323906Y-87983619D01*
X119371525Y-88078857D01*
X119419144Y-88269333D01*
X119419144Y-88507429D01*
X119371525Y-88697905D01*
X119323906Y-88793143D01*
X119276287Y-88840762D01*
X119181049Y-88888381D01*
X119085810Y-88888381D01*
X118990572Y-88840762D01*
X118942953Y-88793143D01*
X118895334Y-88697905D01*
X118847715Y-88507429D01*
X118847715Y-88269333D01*
X118895334Y-88078857D01*
X118942953Y-87983619D01*
X118990572Y-87936000D01*
X119085810Y-87888381D01*
X114514381Y-75009333D02*
X115228667Y-75009333D01*
X115371524Y-75056953D01*
X115466762Y-75152191D01*
X115514381Y-75295048D01*
X115514381Y-75390286D01*
X115514381Y-74009333D02*
X115514381Y-74580762D01*
X115514381Y-74295048D02*
X114514381Y-74295048D01*
X114657238Y-74390286D01*
X114752476Y-74485524D01*
X114800095Y-74580762D01*
X117165905Y-88793143D02*
X117118286Y-88840762D01*
X116975429Y-88888381D01*
X116880191Y-88888381D01*
X116737333Y-88840762D01*
X116642095Y-88745524D01*
X116594476Y-88650286D01*
X116546857Y-88459810D01*
X116546857Y-88316952D01*
X116594476Y-88126476D01*
X116642095Y-88031238D01*
X116737333Y-87936000D01*
X116880191Y-87888381D01*
X116975429Y-87888381D01*
X117118286Y-87936000D01*
X117165905Y-87983619D01*
X117737333Y-88888381D02*
X117642095Y-88840762D01*
X117594476Y-88793143D01*
X117546857Y-88697905D01*
X117546857Y-88412190D01*
X117594476Y-88316952D01*
X117642095Y-88269333D01*
X117737333Y-88221714D01*
X117880191Y-88221714D01*
X117975429Y-88269333D01*
X118023048Y-88316952D01*
X118070667Y-88412190D01*
X118070667Y-88697905D01*
X118023048Y-88793143D01*
X117975429Y-88840762D01*
X117880191Y-88888381D01*
X117737333Y-88888381D01*
X118499238Y-88221714D02*
X118499238Y-88888381D01*
X118499238Y-88316952D02*
X118546857Y-88269333D01*
X118642095Y-88221714D01*
X118784953Y-88221714D01*
X118880191Y-88269333D01*
X118927810Y-88364571D01*
X118927810Y-88888381D01*
X119404000Y-88221714D02*
X119404000Y-88888381D01*
X119404000Y-88316952D02*
X119451619Y-88269333D01*
X119546857Y-88221714D01*
X119689715Y-88221714D01*
X119784953Y-88269333D01*
X119832572Y-88364571D01*
X119832572Y-88888381D01*
X120070667Y-88983619D02*
X120832572Y-88983619D01*
X121261143Y-87888381D02*
X121356382Y-87888381D01*
X121451620Y-87936000D01*
X121499239Y-87983619D01*
X121546858Y-88078857D01*
X121594477Y-88269333D01*
X121594477Y-88507429D01*
X121546858Y-88697905D01*
X121499239Y-88793143D01*
X121451620Y-88840762D01*
X121356382Y-88888381D01*
X121261143Y-88888381D01*
X121165905Y-88840762D01*
X121118286Y-88793143D01*
X121070667Y-88697905D01*
X121023048Y-88507429D01*
X121023048Y-88269333D01*
X121070667Y-88078857D01*
X121118286Y-87983619D01*
X121165905Y-87936000D01*
X121261143Y-87888381D01*
X122546858Y-88888381D02*
X121975429Y-88888381D01*
X122261143Y-88888381D02*
X122261143Y-87888381D01*
X122165905Y-88031238D01*
X122070667Y-88126476D01*
X121975429Y-88174095D01*
X122880191Y-88888381D02*
X123404001Y-88221714D01*
X122880191Y-88221714D02*
X123404001Y-88888381D01*
X124308763Y-88888381D02*
X123737334Y-88888381D01*
X124023048Y-88888381D02*
X124023048Y-87888381D01*
X123927810Y-88031238D01*
X123832572Y-88126476D01*
X123737334Y-88174095D01*
X124927810Y-87888381D02*
X125023049Y-87888381D01*
X125118287Y-87936000D01*
X125165906Y-87983619D01*
X125213525Y-88078857D01*
X125261144Y-88269333D01*
X125261144Y-88507429D01*
X125213525Y-88697905D01*
X125165906Y-88793143D01*
X125118287Y-88840762D01*
X125023049Y-88888381D01*
X124927810Y-88888381D01*
X124832572Y-88840762D01*
X124784953Y-88793143D01*
X124737334Y-88697905D01*
X124689715Y-88507429D01*
X124689715Y-88269333D01*
X124737334Y-88078857D01*
X124784953Y-87983619D01*
X124832572Y-87936000D01*
X124927810Y-87888381D01*
X120356381Y-75009333D02*
X121070667Y-75009333D01*
X121213524Y-75056953D01*
X121308762Y-75152191D01*
X121356381Y-75295048D01*
X121356381Y-75390286D01*
X120451619Y-74580762D02*
X120404000Y-74533143D01*
X120356381Y-74437905D01*
X120356381Y-74199809D01*
X120404000Y-74104571D01*
X120451619Y-74056952D01*
X120546857Y-74009333D01*
X120642095Y-74009333D01*
X120784952Y-74056952D01*
X121356381Y-74628381D01*
X121356381Y-74009333D01*
X165612381Y-92844666D02*
X166326667Y-92844666D01*
X166469524Y-92892286D01*
X166564762Y-92987524D01*
X166612381Y-93130381D01*
X166612381Y-93225619D01*
X165945714Y-91939904D02*
X166612381Y-91939904D01*
X165945714Y-92368476D02*
X166469524Y-92368476D01*
X166564762Y-92320857D01*
X166612381Y-92225619D01*
X166612381Y-92082761D01*
X166564762Y-91987523D01*
X166517143Y-91939904D01*
X166612381Y-91463714D02*
X165945714Y-91463714D01*
X166040952Y-91463714D02*
X165993333Y-91416095D01*
X165945714Y-91320857D01*
X165945714Y-91177999D01*
X165993333Y-91082761D01*
X166088571Y-91035142D01*
X166612381Y-91035142D01*
X166088571Y-91035142D02*
X165993333Y-90987523D01*
X165945714Y-90892285D01*
X165945714Y-90749428D01*
X165993333Y-90654190D01*
X166088571Y-90606571D01*
X166612381Y-90606571D01*
X165945714Y-90130381D02*
X166945714Y-90130381D01*
X165993333Y-90130381D02*
X165945714Y-90035143D01*
X165945714Y-89844666D01*
X165993333Y-89749428D01*
X166040952Y-89701809D01*
X166136190Y-89654190D01*
X166421905Y-89654190D01*
X166517143Y-89701809D01*
X166564762Y-89749428D01*
X166612381Y-89844666D01*
X166612381Y-90035143D01*
X166564762Y-90130381D01*
X166564762Y-88844666D02*
X166612381Y-88939904D01*
X166612381Y-89130381D01*
X166564762Y-89225619D01*
X166469524Y-89273238D01*
X166088571Y-89273238D01*
X165993333Y-89225619D01*
X165945714Y-89130381D01*
X165945714Y-88939904D01*
X165993333Y-88844666D01*
X166088571Y-88797047D01*
X166183810Y-88797047D01*
X166279048Y-89273238D01*
X166612381Y-88368476D02*
X165945714Y-88368476D01*
X166136190Y-88368476D02*
X166040952Y-88320857D01*
X165993333Y-88273238D01*
X165945714Y-88178000D01*
X165945714Y-88082761D01*
X161726667Y-90130381D02*
X161726667Y-90844667D01*
X161679047Y-90987524D01*
X161583809Y-91082762D01*
X161440952Y-91130381D01*
X161345714Y-91130381D01*
X162202857Y-91130381D02*
X162202857Y-90130381D01*
X162583810Y-90130381D01*
X162679048Y-90178000D01*
X162726667Y-90225619D01*
X162774286Y-90320857D01*
X162774286Y-90463714D01*
X162726667Y-90558952D01*
X162679048Y-90606571D01*
X162583810Y-90654190D01*
X162202857Y-90654190D01*
X163726667Y-91130381D02*
X163155238Y-91130381D01*
X163440952Y-91130381D02*
X163440952Y-90130381D01*
X163345714Y-90273238D01*
X163250476Y-90368476D01*
X163155238Y-90416095D01*
X175125334Y-97960381D02*
X175125334Y-98674667D01*
X175077714Y-98817524D01*
X174982476Y-98912762D01*
X174839619Y-98960381D01*
X174744381Y-98960381D01*
X176030096Y-98293714D02*
X176030096Y-98960381D01*
X175601524Y-98293714D02*
X175601524Y-98817524D01*
X175649143Y-98912762D01*
X175744381Y-98960381D01*
X175887239Y-98960381D01*
X175982477Y-98912762D01*
X176030096Y-98865143D01*
X176506286Y-98960381D02*
X176506286Y-98293714D01*
X176506286Y-98388952D02*
X176553905Y-98341333D01*
X176649143Y-98293714D01*
X176792001Y-98293714D01*
X176887239Y-98341333D01*
X176934858Y-98436571D01*
X176934858Y-98960381D01*
X176934858Y-98436571D02*
X176982477Y-98341333D01*
X177077715Y-98293714D01*
X177220572Y-98293714D01*
X177315810Y-98341333D01*
X177363429Y-98436571D01*
X177363429Y-98960381D01*
X177839619Y-98293714D02*
X177839619Y-99293714D01*
X177839619Y-98341333D02*
X177934857Y-98293714D01*
X178125334Y-98293714D01*
X178220572Y-98341333D01*
X178268191Y-98388952D01*
X178315810Y-98484190D01*
X178315810Y-98769905D01*
X178268191Y-98865143D01*
X178220572Y-98912762D01*
X178125334Y-98960381D01*
X177934857Y-98960381D01*
X177839619Y-98912762D01*
X179125334Y-98912762D02*
X179030096Y-98960381D01*
X178839619Y-98960381D01*
X178744381Y-98912762D01*
X178696762Y-98817524D01*
X178696762Y-98436571D01*
X178744381Y-98341333D01*
X178839619Y-98293714D01*
X179030096Y-98293714D01*
X179125334Y-98341333D01*
X179172953Y-98436571D01*
X179172953Y-98531810D01*
X178696762Y-98627048D01*
X179601524Y-98960381D02*
X179601524Y-98293714D01*
X179601524Y-98484190D02*
X179649143Y-98388952D01*
X179696762Y-98341333D01*
X179792000Y-98293714D01*
X179887239Y-98293714D01*
X176744381Y-102941333D02*
X177458667Y-102941333D01*
X177601524Y-102988953D01*
X177696762Y-103084191D01*
X177744381Y-103227048D01*
X177744381Y-103322286D01*
X177744381Y-102465143D02*
X176744381Y-102465143D01*
X176744381Y-102084190D01*
X176792000Y-101988952D01*
X176839619Y-101941333D01*
X176934857Y-101893714D01*
X177077714Y-101893714D01*
X177172952Y-101941333D01*
X177220571Y-101988952D01*
X177268190Y-102084190D01*
X177268190Y-102465143D01*
X176839619Y-101512762D02*
X176792000Y-101465143D01*
X176744381Y-101369905D01*
X176744381Y-101131809D01*
X176792000Y-101036571D01*
X176839619Y-100988952D01*
X176934857Y-100941333D01*
X177030095Y-100941333D01*
X177172952Y-100988952D01*
X177744381Y-101560381D01*
X177744381Y-100941333D01*
X134231334Y-113708381D02*
X134231334Y-114422667D01*
X134183714Y-114565524D01*
X134088476Y-114660762D01*
X133945619Y-114708381D01*
X133850381Y-114708381D01*
X135136096Y-114041714D02*
X135136096Y-114708381D01*
X134707524Y-114041714D02*
X134707524Y-114565524D01*
X134755143Y-114660762D01*
X134850381Y-114708381D01*
X134993239Y-114708381D01*
X135088477Y-114660762D01*
X135136096Y-114613143D01*
X135612286Y-114708381D02*
X135612286Y-114041714D01*
X135612286Y-114136952D02*
X135659905Y-114089333D01*
X135755143Y-114041714D01*
X135898001Y-114041714D01*
X135993239Y-114089333D01*
X136040858Y-114184571D01*
X136040858Y-114708381D01*
X136040858Y-114184571D02*
X136088477Y-114089333D01*
X136183715Y-114041714D01*
X136326572Y-114041714D01*
X136421810Y-114089333D01*
X136469429Y-114184571D01*
X136469429Y-114708381D01*
X136945619Y-114041714D02*
X136945619Y-115041714D01*
X136945619Y-114089333D02*
X137040857Y-114041714D01*
X137231334Y-114041714D01*
X137326572Y-114089333D01*
X137374191Y-114136952D01*
X137421810Y-114232190D01*
X137421810Y-114517905D01*
X137374191Y-114613143D01*
X137326572Y-114660762D01*
X137231334Y-114708381D01*
X137040857Y-114708381D01*
X136945619Y-114660762D01*
X138231334Y-114660762D02*
X138136096Y-114708381D01*
X137945619Y-114708381D01*
X137850381Y-114660762D01*
X137802762Y-114565524D01*
X137802762Y-114184571D01*
X137850381Y-114089333D01*
X137945619Y-114041714D01*
X138136096Y-114041714D01*
X138231334Y-114089333D01*
X138278953Y-114184571D01*
X138278953Y-114279810D01*
X137802762Y-114375048D01*
X138707524Y-114708381D02*
X138707524Y-114041714D01*
X138707524Y-114232190D02*
X138755143Y-114136952D01*
X138802762Y-114089333D01*
X138898000Y-114041714D01*
X138993239Y-114041714D01*
X135850381Y-118689333D02*
X136564667Y-118689333D01*
X136707524Y-118736953D01*
X136802762Y-118832191D01*
X136850381Y-118975048D01*
X136850381Y-119070286D01*
X136850381Y-118213143D02*
X135850381Y-118213143D01*
X135850381Y-117832190D01*
X135898000Y-117736952D01*
X135945619Y-117689333D01*
X136040857Y-117641714D01*
X136183714Y-117641714D01*
X136278952Y-117689333D01*
X136326571Y-117736952D01*
X136374190Y-117832190D01*
X136374190Y-118213143D01*
X135850381Y-117308381D02*
X135850381Y-116689333D01*
X136231333Y-117022667D01*
X136231333Y-116879809D01*
X136278952Y-116784571D01*
X136326571Y-116736952D01*
X136421810Y-116689333D01*
X136659905Y-116689333D01*
X136755143Y-116736952D01*
X136802762Y-116784571D01*
X136850381Y-116879809D01*
X136850381Y-117165524D01*
X136802762Y-117260762D01*
X136755143Y-117308381D01*
X173482381Y-88836762D02*
X173625238Y-88884381D01*
X173863334Y-88884381D01*
X173958572Y-88836762D01*
X174006191Y-88789143D01*
X174053810Y-88693905D01*
X174053810Y-88598667D01*
X174006191Y-88503429D01*
X173958572Y-88455810D01*
X173863334Y-88408190D01*
X173672857Y-88360571D01*
X173577619Y-88312952D01*
X173530000Y-88265333D01*
X173482381Y-88170095D01*
X173482381Y-88074857D01*
X173530000Y-87979619D01*
X173577619Y-87932000D01*
X173672857Y-87884381D01*
X173910953Y-87884381D01*
X174053810Y-87932000D01*
X174387143Y-87884381D02*
X174625238Y-88884381D01*
X174815715Y-88170095D01*
X175006191Y-88884381D01*
X175244286Y-87884381D01*
X175387143Y-88979619D02*
X176149048Y-88979619D01*
X176387143Y-88884381D02*
X176387143Y-87884381D01*
X176768096Y-87884381D01*
X176863334Y-87932000D01*
X176910953Y-87979619D01*
X176958572Y-88074857D01*
X176958572Y-88217714D01*
X176910953Y-88312952D01*
X176863334Y-88360571D01*
X176768096Y-88408190D01*
X176387143Y-88408190D01*
X177815715Y-88217714D02*
X177815715Y-88884381D01*
X177387143Y-88217714D02*
X177387143Y-88741524D01*
X177434762Y-88836762D01*
X177530000Y-88884381D01*
X177672858Y-88884381D01*
X177768096Y-88836762D01*
X177815715Y-88789143D01*
X178244286Y-88836762D02*
X178339524Y-88884381D01*
X178530000Y-88884381D01*
X178625239Y-88836762D01*
X178672858Y-88741524D01*
X178672858Y-88693905D01*
X178625239Y-88598667D01*
X178530000Y-88551048D01*
X178387143Y-88551048D01*
X178291905Y-88503429D01*
X178244286Y-88408190D01*
X178244286Y-88360571D01*
X178291905Y-88265333D01*
X178387143Y-88217714D01*
X178530000Y-88217714D01*
X178625239Y-88265333D01*
X179101429Y-88884381D02*
X179101429Y-87884381D01*
X179530001Y-88884381D02*
X179530001Y-88360571D01*
X179482382Y-88265333D01*
X179387144Y-88217714D01*
X179244286Y-88217714D01*
X179149048Y-88265333D01*
X179101429Y-88312952D01*
X175196667Y-93836762D02*
X175339524Y-93884381D01*
X175577620Y-93884381D01*
X175672858Y-93836762D01*
X175720477Y-93789143D01*
X175768096Y-93693905D01*
X175768096Y-93598667D01*
X175720477Y-93503429D01*
X175672858Y-93455810D01*
X175577620Y-93408190D01*
X175387143Y-93360571D01*
X175291905Y-93312952D01*
X175244286Y-93265333D01*
X175196667Y-93170095D01*
X175196667Y-93074857D01*
X175244286Y-92979619D01*
X175291905Y-92932000D01*
X175387143Y-92884381D01*
X175625239Y-92884381D01*
X175768096Y-92932000D01*
X176101429Y-92884381D02*
X176339524Y-93884381D01*
X176530001Y-93170095D01*
X176720477Y-93884381D01*
X176958572Y-92884381D01*
X177863334Y-93884381D02*
X177291905Y-93884381D01*
X177577619Y-93884381D02*
X177577619Y-92884381D01*
X177482381Y-93027238D01*
X177387143Y-93122476D01*
X177291905Y-93170095D01*
X166878381Y-93836762D02*
X167021238Y-93884381D01*
X167259334Y-93884381D01*
X167354572Y-93836762D01*
X167402191Y-93789143D01*
X167449810Y-93693905D01*
X167449810Y-93598667D01*
X167402191Y-93503429D01*
X167354572Y-93455810D01*
X167259334Y-93408190D01*
X167068857Y-93360571D01*
X166973619Y-93312952D01*
X166926000Y-93265333D01*
X166878381Y-93170095D01*
X166878381Y-93074857D01*
X166926000Y-92979619D01*
X166973619Y-92932000D01*
X167068857Y-92884381D01*
X167306953Y-92884381D01*
X167449810Y-92932000D01*
X167783143Y-92884381D02*
X168021238Y-93884381D01*
X168211715Y-93170095D01*
X168402191Y-93884381D01*
X168640286Y-92884381D01*
X168783143Y-93979619D02*
X169545048Y-93979619D01*
X169783143Y-93884381D02*
X169783143Y-92884381D01*
X170164096Y-92884381D01*
X170259334Y-92932000D01*
X170306953Y-92979619D01*
X170354572Y-93074857D01*
X170354572Y-93217714D01*
X170306953Y-93312952D01*
X170259334Y-93360571D01*
X170164096Y-93408190D01*
X169783143Y-93408190D01*
X171211715Y-93217714D02*
X171211715Y-93884381D01*
X170783143Y-93217714D02*
X170783143Y-93741524D01*
X170830762Y-93836762D01*
X170926000Y-93884381D01*
X171068858Y-93884381D01*
X171164096Y-93836762D01*
X171211715Y-93789143D01*
X171640286Y-93836762D02*
X171735524Y-93884381D01*
X171926000Y-93884381D01*
X172021239Y-93836762D01*
X172068858Y-93741524D01*
X172068858Y-93693905D01*
X172021239Y-93598667D01*
X171926000Y-93551048D01*
X171783143Y-93551048D01*
X171687905Y-93503429D01*
X171640286Y-93408190D01*
X171640286Y-93360571D01*
X171687905Y-93265333D01*
X171783143Y-93217714D01*
X171926000Y-93217714D01*
X172021239Y-93265333D01*
X172497429Y-93884381D02*
X172497429Y-92884381D01*
X172926001Y-93884381D02*
X172926001Y-93360571D01*
X172878382Y-93265333D01*
X172783144Y-93217714D01*
X172640286Y-93217714D01*
X172545048Y-93265333D01*
X172497429Y-93312952D01*
X168592667Y-88836762D02*
X168735524Y-88884381D01*
X168973620Y-88884381D01*
X169068858Y-88836762D01*
X169116477Y-88789143D01*
X169164096Y-88693905D01*
X169164096Y-88598667D01*
X169116477Y-88503429D01*
X169068858Y-88455810D01*
X168973620Y-88408190D01*
X168783143Y-88360571D01*
X168687905Y-88312952D01*
X168640286Y-88265333D01*
X168592667Y-88170095D01*
X168592667Y-88074857D01*
X168640286Y-87979619D01*
X168687905Y-87932000D01*
X168783143Y-87884381D01*
X169021239Y-87884381D01*
X169164096Y-87932000D01*
X169497429Y-87884381D02*
X169735524Y-88884381D01*
X169926001Y-88170095D01*
X170116477Y-88884381D01*
X170354572Y-87884381D01*
X170687905Y-87979619D02*
X170735524Y-87932000D01*
X170830762Y-87884381D01*
X171068858Y-87884381D01*
X171164096Y-87932000D01*
X171211715Y-87979619D01*
X171259334Y-88074857D01*
X171259334Y-88170095D01*
X171211715Y-88312952D01*
X170640286Y-88884381D01*
X171259334Y-88884381D01*
M02*
