G04 #@! TF.FileFunction,Soldermask,Bot*
%FSLAX46Y46*%
G04 Gerber Fmt 4.6, Leading zero omitted, Abs format (unit mm)*
G04 Created by KiCad (PCBNEW 4.0.7) date 04/18/18 00:39:05*
%MOMM*%
%LPD*%
G01*
G04 APERTURE LIST*
%ADD10C,0.100000*%
%ADD11O,1.924000X2.400000*%
%ADD12C,2.000000*%
%ADD13R,2.000000X2.000000*%
%ADD14C,2.300000*%
%ADD15R,2.127200X2.127200*%
%ADD16O,2.127200X2.127200*%
%ADD17C,2.900000*%
%ADD18R,3.400000X1.400000*%
%ADD19R,2.400000X4.200000*%
%ADD20R,2.400000X1.900000*%
%ADD21R,2.100000X2.100000*%
%ADD22O,2.100000X2.100000*%
%ADD23O,2.400000X1.924000*%
G04 APERTURE END LIST*
D10*
D11*
X150622000Y-82042000D03*
X148082000Y-82042000D03*
X145542000Y-82042000D03*
D12*
X147320000Y-86360000D03*
X144780000Y-86360000D03*
X142240000Y-86360000D03*
X139700000Y-86360000D03*
X149860000Y-86360000D03*
X152400000Y-86360000D03*
X154940000Y-86360000D03*
X139700000Y-88900000D03*
X139700000Y-91440000D03*
X139700000Y-93980000D03*
X139700000Y-96520000D03*
X139700000Y-99060000D03*
X139700000Y-101600000D03*
X139700000Y-104140000D03*
X139700000Y-106680000D03*
X139700000Y-109220000D03*
X139700000Y-111760000D03*
X139700000Y-114300000D03*
X139700000Y-116840000D03*
X139700000Y-119380000D03*
X142240000Y-116840000D03*
X142240000Y-111760000D03*
X142240000Y-109220000D03*
X142240000Y-106680000D03*
X154940000Y-88900000D03*
X154940000Y-91440000D03*
X154940000Y-93980000D03*
X154940000Y-96520000D03*
X154940000Y-99060000D03*
X154940000Y-101600000D03*
X154940000Y-104140000D03*
X154940000Y-106680000D03*
X154940000Y-109220000D03*
X154940000Y-111760000D03*
X154940000Y-114300000D03*
X154940000Y-116840000D03*
D13*
X154940000Y-119380000D03*
D12*
X147320000Y-104140000D03*
X147320000Y-101600000D03*
X147320000Y-99060000D03*
X147320000Y-96520000D03*
X147320000Y-93980000D03*
X147320000Y-91440000D03*
X147320000Y-88900000D03*
X144780000Y-88900000D03*
X144780000Y-91440000D03*
X144780000Y-93980000D03*
X144780000Y-96520000D03*
X144780000Y-99060000D03*
X144780000Y-101600000D03*
X144780000Y-104140000D03*
D14*
X147320000Y-109220000D03*
X147320000Y-113030000D03*
D15*
X164338000Y-116840000D03*
D16*
X164338000Y-114300000D03*
X166878000Y-116840000D03*
X166878000Y-114300000D03*
X169418000Y-116840000D03*
X169418000Y-114300000D03*
X171958000Y-116840000D03*
X171958000Y-114300000D03*
D11*
X116840000Y-93980000D03*
X119380000Y-93980000D03*
X121920000Y-93980000D03*
X124460000Y-93980000D03*
X134874000Y-83312000D03*
X132334000Y-83312000D03*
X129794000Y-83312000D03*
X127254000Y-83312000D03*
D17*
X109728000Y-62738000D03*
X177292000Y-62738000D03*
X109728000Y-117602000D03*
X177292000Y-117602000D03*
D18*
X159766000Y-104380000D03*
X159766000Y-108980000D03*
X175768000Y-106666000D03*
X175768000Y-111266000D03*
D19*
X170536000Y-106680000D03*
D20*
X164236000Y-106680000D03*
X164236000Y-104380000D03*
X164236000Y-108980000D03*
D21*
X115062000Y-63246000D03*
D22*
X115062000Y-65786000D03*
X115062000Y-68326000D03*
X115062000Y-70866000D03*
X115062000Y-73406000D03*
X115062000Y-75946000D03*
X115062000Y-78486000D03*
X115062000Y-81026000D03*
X115062000Y-83566000D03*
X115062000Y-86106000D03*
D21*
X120904000Y-63246000D03*
D22*
X120904000Y-65786000D03*
X120904000Y-68326000D03*
X120904000Y-70866000D03*
X120904000Y-73406000D03*
X120904000Y-75946000D03*
X120904000Y-78486000D03*
X120904000Y-81026000D03*
X120904000Y-83566000D03*
X120904000Y-86106000D03*
D21*
X161290000Y-90678000D03*
D22*
X163830000Y-90678000D03*
D21*
X177292000Y-103378000D03*
D22*
X177292000Y-100838000D03*
D21*
X136398000Y-119126000D03*
D22*
X136398000Y-116586000D03*
D23*
X151130000Y-88900000D03*
X151130000Y-91440000D03*
X151130000Y-93980000D03*
X151130000Y-96520000D03*
X151130000Y-99060000D03*
X151130000Y-101600000D03*
M02*
