M48
;DRILL file {KiCad 4.0.7} date 04/18/18 00:34:58
;FORMAT={-:-/ absolute / inch / decimal}
FMAT,2
INCH,TZ
T1C0.016
T2C0.020
T3C0.039
T4C0.040
T5C0.043
T6C0.043
%
G90
G05
M72
T1
X4.9Y-4.29
X4.91Y-2.58
X4.92Y-4.44
X5.26Y-2.49
X5.32Y-2.99
X5.36Y-4.44
X5.39Y-2.91
X5.39Y-3.24
X5.45Y-3.18
X5.45Y-3.3
X5.47Y-2.99
X5.57Y-3.14
X5.6Y-3.
X5.61Y-3.6
X5.65Y-3.55
X5.65Y-4.05
X6.03Y-3.9
X6.03Y-4.2
X6.1Y-4.7
X6.4Y-3.3
X6.45Y-4.4
X6.54Y-3.65
X6.7Y-3.35
X6.89Y-3.4
X6.9Y-4.45
X6.91Y-2.66
X6.95Y-3.07
T2
X5.8Y-4.3
X5.8Y-4.45
T3
X4.53Y-2.49
X4.53Y-2.59
X4.53Y-2.69
X4.53Y-2.79
X4.53Y-2.89
X4.53Y-2.99
X4.53Y-3.09
X4.53Y-3.19
X4.53Y-3.29
X4.53Y-3.39
X4.76Y-2.49
X4.76Y-2.59
X4.76Y-2.69
X4.76Y-2.79
X4.76Y-2.89
X4.76Y-2.99
X4.76Y-3.09
X4.76Y-3.19
X4.76Y-3.29
X4.76Y-3.39
X5.37Y-4.59
X5.37Y-4.69
X6.35Y-3.57
X6.45Y-3.57
X6.98Y-3.97
X6.98Y-4.07
T4
X6.47Y-4.5
X6.47Y-4.6
X6.57Y-4.5
X6.57Y-4.6
X6.67Y-4.5
X6.67Y-4.6
X6.77Y-4.5
X6.77Y-4.6
T5
X5.95Y-3.5
X5.95Y-3.6
X5.95Y-3.7
X5.95Y-3.8
X5.95Y-3.9
X5.95Y-4.
T6
X4.6Y-3.7
X4.7Y-3.7
X4.8Y-3.7
X4.9Y-3.7
X5.01Y-3.28
X5.11Y-3.28
X5.21Y-3.28
X5.31Y-3.28
X5.5Y-3.4
X5.5Y-3.5
X5.5Y-3.6
X5.5Y-3.7
X5.5Y-3.8
X5.5Y-3.9
X5.5Y-4.
X5.5Y-4.1
X5.5Y-4.2
X5.5Y-4.3
X5.5Y-4.4
X5.5Y-4.5
X5.5Y-4.6
X5.5Y-4.7
X5.6Y-3.4
X5.6Y-4.2
X5.6Y-4.3
X5.6Y-4.4
X5.6Y-4.6
X5.7Y-3.4
X5.7Y-3.5
X5.7Y-3.6
X5.7Y-3.7
X5.7Y-3.8
X5.7Y-3.9
X5.7Y-4.
X5.7Y-4.1
X5.73Y-3.23
X5.8Y-3.4
X5.8Y-3.5
X5.8Y-3.6
X5.8Y-3.7
X5.8Y-3.8
X5.8Y-3.9
X5.8Y-4.
X5.8Y-4.1
X5.83Y-3.23
X5.9Y-3.4
X5.93Y-3.23
X6.Y-3.4
X6.1Y-3.4
X6.1Y-3.5
X6.1Y-3.6
X6.1Y-3.7
X6.1Y-3.8
X6.1Y-3.9
X6.1Y-4.
X6.1Y-4.1
X6.1Y-4.2
X6.1Y-4.3
X6.1Y-4.4
X6.1Y-4.5
X6.1Y-4.6
X6.1Y-4.7
T0
M30
