G04 #@! TF.FileFunction,Copper,L2,Bot,Signal*
%FSLAX46Y46*%
G04 Gerber Fmt 4.6, Leading zero omitted, Abs format (unit mm)*
G04 Created by KiCad (PCBNEW 4.0.7) date 05/31/18 22:49:15*
%MOMM*%
%LPD*%
G01*
G04 APERTURE LIST*
%ADD10C,0.100000*%
%ADD11R,1.700000X1.700000*%
%ADD12O,1.700000X1.700000*%
%ADD13R,1.300000X1.500000*%
%ADD14R,1.250000X1.500000*%
%ADD15R,1.500000X1.300000*%
%ADD16C,2.032000*%
%ADD17O,1.200000X2.000000*%
%ADD18O,2.000000X1.200000*%
%ADD19R,1.200000X0.900000*%
%ADD20O,3.810000X3.810000*%
%ADD21C,1.778000*%
%ADD22C,0.600000*%
%ADD23C,0.250000*%
G04 APERTURE END LIST*
D10*
D11*
X149479000Y-128143000D03*
D12*
X152019000Y-128143000D03*
X154559000Y-128143000D03*
X157099000Y-128143000D03*
X159639000Y-128143000D03*
X162179000Y-128143000D03*
X164719000Y-128143000D03*
X167259000Y-128143000D03*
X169799000Y-128143000D03*
X172339000Y-128143000D03*
D13*
X177673000Y-101266000D03*
X177673000Y-103966000D03*
X171704000Y-101139000D03*
X171704000Y-103839000D03*
D11*
X118440200Y-101930200D03*
D12*
X118440200Y-99390200D03*
X118440200Y-96850200D03*
X118440200Y-94310200D03*
X118440200Y-91770200D03*
X118440200Y-89230200D03*
X118440200Y-86690200D03*
X118440200Y-84150200D03*
X118440200Y-81610200D03*
X118440200Y-79070200D03*
D11*
X124282200Y-101930200D03*
D12*
X124282200Y-99390200D03*
X124282200Y-96850200D03*
X124282200Y-94310200D03*
X124282200Y-91770200D03*
X124282200Y-89230200D03*
X124282200Y-86690200D03*
X124282200Y-84150200D03*
X124282200Y-81610200D03*
X124282200Y-79070200D03*
D14*
X180467000Y-88285000D03*
X180467000Y-90785000D03*
X164211000Y-88285000D03*
X164211000Y-90785000D03*
D15*
X159338000Y-77724000D03*
X156638000Y-77724000D03*
X172132000Y-77470000D03*
X174832000Y-77470000D03*
D16*
X121285000Y-96012000D03*
D17*
X127000000Y-79452000D03*
D16*
X136525000Y-96012000D03*
D17*
X129540000Y-79452000D03*
D16*
X136525000Y-82677000D03*
D17*
X132080000Y-79452000D03*
D16*
X121285000Y-82727000D03*
D18*
X138380000Y-92202000D03*
D17*
X132715000Y-96697000D03*
D18*
X138380000Y-89662000D03*
D17*
X132715000Y-101777000D03*
D18*
X138380000Y-87122000D03*
D17*
X126365000Y-96697000D03*
X126365000Y-101677000D03*
D11*
X149479000Y-130683000D03*
D12*
X152019000Y-130683000D03*
X154559000Y-130683000D03*
X157099000Y-130683000D03*
X159639000Y-130683000D03*
X162179000Y-130683000D03*
X164719000Y-130683000D03*
X167259000Y-130683000D03*
X169799000Y-130683000D03*
X172339000Y-130683000D03*
D11*
X149479000Y-120523000D03*
D12*
X152019000Y-120523000D03*
X154559000Y-120523000D03*
X157099000Y-120523000D03*
X159639000Y-120523000D03*
X162179000Y-120523000D03*
X164719000Y-120523000D03*
X167259000Y-120523000D03*
X169799000Y-120523000D03*
X172339000Y-120523000D03*
D11*
X149479000Y-117983000D03*
D12*
X152019000Y-117983000D03*
X154559000Y-117983000D03*
X157099000Y-117983000D03*
X159639000Y-117983000D03*
X162179000Y-117983000D03*
X164719000Y-117983000D03*
X167259000Y-117983000D03*
X169799000Y-117983000D03*
X172339000Y-117983000D03*
D19*
X114892000Y-84074000D03*
X112692000Y-84074000D03*
X114892000Y-88138000D03*
X112692000Y-88138000D03*
X114892000Y-86106000D03*
X112692000Y-86106000D03*
X114892000Y-90170000D03*
X112692000Y-90170000D03*
D11*
X161798000Y-83439000D03*
D12*
X156972000Y-88265000D03*
X154432000Y-90805000D03*
D11*
X178054000Y-83439000D03*
D12*
X173228000Y-88265000D03*
X170688000Y-90805000D03*
D20*
X182041800Y-103505000D03*
X168071800Y-103505000D03*
D21*
X172491400Y-95859600D03*
X177571400Y-95859600D03*
X177571400Y-111099600D03*
X175031400Y-111074200D03*
X172491400Y-111099600D03*
D22*
X169799000Y-110236000D03*
X170561000Y-114173000D03*
X132842000Y-87122000D03*
X128016000Y-87122000D03*
X165341300Y-95135700D03*
X174117000Y-101092000D03*
X176149000Y-101092000D03*
X166370000Y-77724000D03*
X163449000Y-111125000D03*
X152781000Y-103124000D03*
X138176000Y-98552000D03*
X153543000Y-100838000D03*
X167005000Y-108331000D03*
X184277000Y-114300000D03*
X182245000Y-85979000D03*
X178308000Y-85979000D03*
X171577000Y-106807000D03*
X169672000Y-123825000D03*
X175768000Y-123825000D03*
D23*
X169799000Y-117983000D02*
X170307000Y-117983000D01*
X170307000Y-117983000D02*
X171069000Y-118745000D01*
X171069000Y-126873000D02*
X169799000Y-128143000D01*
X171069000Y-118745000D02*
X171069000Y-126873000D01*
X169799000Y-117983000D02*
X170180000Y-117983000D01*
X124282200Y-99390200D02*
X125526800Y-99390200D01*
X125603000Y-99314000D02*
X137922000Y-99314000D01*
X125526800Y-99390200D02*
X125603000Y-99314000D01*
X137922000Y-99314000D02*
X147828000Y-109220000D01*
X147828000Y-109220000D02*
X168783000Y-109220000D01*
X168783000Y-109220000D02*
X169799000Y-110236000D01*
X169799000Y-117983000D02*
X169799000Y-118364000D01*
X118440200Y-99390200D02*
X124282200Y-99390200D01*
X169799000Y-117983000D02*
X169799000Y-117729000D01*
X118440200Y-96850200D02*
X118948200Y-96850200D01*
X118948200Y-96850200D02*
X120015000Y-97917000D01*
X123215400Y-97917000D02*
X124282200Y-96850200D01*
X120015000Y-97917000D02*
X123215400Y-97917000D01*
X167259000Y-117983000D02*
X167259000Y-117475000D01*
X167259000Y-117475000D02*
X170561000Y-114173000D01*
X175031400Y-111074200D02*
X175031400Y-88417400D01*
X175006000Y-88519000D02*
X175006000Y-88392000D01*
X175006000Y-88442800D02*
X175006000Y-88519000D01*
X175031400Y-88417400D02*
X175006000Y-88442800D01*
X118440200Y-96850200D02*
X117678200Y-96850200D01*
X117678200Y-96850200D02*
X116586000Y-95758000D01*
X117398800Y-89230200D02*
X118440200Y-89230200D01*
X116586000Y-90043000D02*
X117398800Y-89230200D01*
X116586000Y-95758000D02*
X116586000Y-90043000D01*
X138380000Y-87122000D02*
X155829000Y-87122000D01*
X155829000Y-87122000D02*
X156972000Y-88265000D01*
X164211000Y-90785000D02*
X165247000Y-90785000D01*
X167767000Y-88265000D02*
X173228000Y-88265000D01*
X165247000Y-90785000D02*
X167767000Y-88265000D01*
X156972000Y-88265000D02*
X158115000Y-88265000D01*
X158115000Y-88265000D02*
X160635000Y-90785000D01*
X160635000Y-90785000D02*
X164211000Y-90785000D01*
X173228000Y-88265000D02*
X174879000Y-88265000D01*
X174879000Y-88265000D02*
X175006000Y-88392000D01*
X175006000Y-88392000D02*
X177399000Y-90785000D01*
X177399000Y-90785000D02*
X180467000Y-90785000D01*
X159639000Y-128143000D02*
X159639000Y-127381000D01*
X159639000Y-127381000D02*
X160528000Y-126492000D01*
X165608000Y-126492000D02*
X167259000Y-128143000D01*
X160528000Y-126492000D02*
X165608000Y-126492000D01*
X165989000Y-119253000D02*
X163830000Y-119253000D01*
X163449000Y-122682000D02*
X162814000Y-123317000D01*
X163449000Y-119634000D02*
X163449000Y-122682000D01*
X163830000Y-119253000D02*
X163449000Y-119634000D01*
X158369000Y-123317000D02*
X158623000Y-123317000D01*
X158623000Y-123317000D02*
X158750000Y-123317000D01*
X167259000Y-117983000D02*
X165989000Y-119253000D01*
X162814000Y-123317000D02*
X158750000Y-123317000D01*
X158750000Y-123317000D02*
X158623000Y-123317000D01*
X159639000Y-128143000D02*
X159639000Y-127254000D01*
X158369000Y-119253000D02*
X159639000Y-117983000D01*
X158369000Y-125984000D02*
X158369000Y-123317000D01*
X158369000Y-123317000D02*
X158369000Y-119253000D01*
X159639000Y-127254000D02*
X158369000Y-125984000D01*
X128016000Y-87122000D02*
X132842000Y-87122000D01*
X167259000Y-117983000D02*
X167259000Y-117729000D01*
X132080000Y-79452000D02*
X136602000Y-79452000D01*
X138380000Y-81230000D02*
X138380000Y-87122000D01*
X137668000Y-80518000D02*
X138380000Y-81230000D01*
X136602000Y-79452000D02*
X137668000Y-80518000D01*
X165354000Y-95123000D02*
X165366700Y-95135700D01*
X165366700Y-95135700D02*
X165341300Y-95135700D01*
X178054000Y-101139000D02*
X176196000Y-101139000D01*
X174070000Y-101139000D02*
X171704000Y-101139000D01*
X174117000Y-101092000D02*
X174070000Y-101139000D01*
X176196000Y-101139000D02*
X176149000Y-101092000D01*
X171704000Y-101139000D02*
X171370000Y-101139000D01*
X171370000Y-101139000D02*
X165354000Y-95123000D01*
X164084000Y-75438000D02*
X164719000Y-75438000D01*
X165735000Y-76454000D02*
X165735000Y-77724000D01*
X164719000Y-75438000D02*
X165735000Y-76454000D01*
X159338000Y-77724000D02*
X165735000Y-77724000D01*
X165735000Y-77724000D02*
X166370000Y-77724000D01*
X166370000Y-77724000D02*
X171878000Y-77724000D01*
X171878000Y-77724000D02*
X172132000Y-77470000D01*
X127000000Y-79452000D02*
X127000000Y-78105000D01*
X129667000Y-75438000D02*
X164084000Y-75438000D01*
X127000000Y-78105000D02*
X129667000Y-75438000D01*
X157099000Y-117983000D02*
X157099000Y-114808000D01*
X160782000Y-111125000D02*
X163449000Y-111125000D01*
X157099000Y-114808000D02*
X160782000Y-111125000D01*
X138380000Y-92202000D02*
X137668000Y-92202000D01*
X137668000Y-92202000D02*
X134874000Y-89408000D01*
X134874000Y-89408000D02*
X134874000Y-88138000D01*
X134874000Y-88138000D02*
X132842000Y-86106000D01*
X132842000Y-86106000D02*
X127000000Y-86106000D01*
X124282200Y-86690200D02*
X126415800Y-86690200D01*
X127000000Y-86106000D02*
X127000000Y-79452000D01*
X126415800Y-86690200D02*
X127000000Y-86106000D01*
X112692000Y-84074000D02*
X111252000Y-84074000D01*
X146685000Y-128143000D02*
X149479000Y-128143000D01*
X142748000Y-124206000D02*
X146685000Y-128143000D01*
X142748000Y-111506000D02*
X142748000Y-124206000D01*
X137668000Y-106426000D02*
X142748000Y-111506000D01*
X114046000Y-106426000D02*
X137668000Y-106426000D01*
X110236000Y-102616000D02*
X114046000Y-106426000D01*
X110236000Y-93980000D02*
X110236000Y-102616000D01*
X109474000Y-93218000D02*
X110236000Y-93980000D01*
X109474000Y-85852000D02*
X109474000Y-93218000D01*
X111252000Y-84074000D02*
X109474000Y-85852000D01*
X112692000Y-86106000D02*
X112692000Y-86190000D01*
X112692000Y-86190000D02*
X110236000Y-88646000D01*
X110236000Y-88646000D02*
X110236000Y-92202000D01*
X110236000Y-92202000D02*
X111506000Y-93472000D01*
X111506000Y-93472000D02*
X111506000Y-102108000D01*
X111506000Y-102108000D02*
X115062000Y-105664000D01*
X115062000Y-105664000D02*
X138430000Y-105664000D01*
X138430000Y-105664000D02*
X144018000Y-111252000D01*
X144018000Y-111252000D02*
X144018000Y-122682000D01*
X144018000Y-122682000D02*
X146050000Y-124714000D01*
X146050000Y-124714000D02*
X150622000Y-124714000D01*
X150622000Y-124714000D02*
X152019000Y-126111000D01*
X152019000Y-126111000D02*
X152019000Y-128143000D01*
X112692000Y-88138000D02*
X112014000Y-88138000D01*
X154559000Y-125349000D02*
X154559000Y-128143000D01*
X153162000Y-123952000D02*
X154559000Y-125349000D01*
X146304000Y-123952000D02*
X153162000Y-123952000D01*
X144780000Y-122428000D02*
X146304000Y-123952000D01*
X144780000Y-110744000D02*
X144780000Y-122428000D01*
X138938000Y-104902000D02*
X144780000Y-110744000D01*
X115570000Y-104902000D02*
X138938000Y-104902000D01*
X113030000Y-102362000D02*
X115570000Y-104902000D01*
X113030000Y-93472000D02*
X113030000Y-102362000D01*
X110998000Y-91440000D02*
X113030000Y-93472000D01*
X110998000Y-89154000D02*
X110998000Y-91440000D01*
X112014000Y-88138000D02*
X110998000Y-89154000D01*
X145542000Y-121920000D02*
X145542000Y-122174000D01*
X112692000Y-91610000D02*
X114300000Y-93218000D01*
X114300000Y-93218000D02*
X114300000Y-101600000D01*
X114300000Y-101600000D02*
X116840000Y-104140000D01*
X116840000Y-104140000D02*
X139446000Y-104140000D01*
X139446000Y-104140000D02*
X145542000Y-110236000D01*
X145542000Y-110236000D02*
X145542000Y-121920000D01*
X112692000Y-90170000D02*
X112692000Y-91610000D01*
X157099000Y-125095000D02*
X157099000Y-128143000D01*
X155194000Y-123190000D02*
X157099000Y-125095000D01*
X146558000Y-123190000D02*
X155194000Y-123190000D01*
X145542000Y-122174000D02*
X146558000Y-123190000D01*
X142748000Y-103124000D02*
X152781000Y-103124000D01*
X138176000Y-98552000D02*
X142748000Y-103124000D01*
X126568200Y-91770200D02*
X124282200Y-91770200D01*
X128270000Y-93472000D02*
X126568200Y-91770200D01*
X146177000Y-93472000D02*
X128270000Y-93472000D01*
X153543000Y-100838000D02*
X146177000Y-93472000D01*
X124282200Y-94310200D02*
X145491200Y-94310200D01*
X159512000Y-108331000D02*
X167005000Y-108331000D01*
X145491200Y-94310200D02*
X159512000Y-108331000D01*
X124282200Y-101930200D02*
X124282200Y-101523800D01*
X124282200Y-101523800D02*
X125984000Y-99822000D01*
X172339000Y-114173000D02*
X172339000Y-117983000D01*
X168148000Y-109982000D02*
X172339000Y-114173000D01*
X147574000Y-109982000D02*
X168148000Y-109982000D01*
X137414000Y-99822000D02*
X147574000Y-109982000D01*
X125984000Y-99822000D02*
X137414000Y-99822000D01*
X124282200Y-101930200D02*
X124282200Y-102692200D01*
X182753000Y-100076000D02*
X180975000Y-100076000D01*
X181483000Y-107442000D02*
X182753000Y-107442000D01*
X179324000Y-105283000D02*
X181483000Y-107442000D01*
X179324000Y-101727000D02*
X179324000Y-105283000D01*
X180975000Y-100076000D02*
X179324000Y-101727000D01*
X172339000Y-130683000D02*
X177673000Y-130683000D01*
X177673000Y-130683000D02*
X182753000Y-125603000D01*
X182753000Y-125603000D02*
X182753000Y-107442000D01*
X181503000Y-88285000D02*
X180467000Y-88285000D01*
X182753000Y-89535000D02*
X181503000Y-88285000D01*
X182753000Y-100076000D02*
X182753000Y-89535000D01*
X178054000Y-83439000D02*
X178054000Y-82550000D01*
X178054000Y-82550000D02*
X179578000Y-81026000D01*
X174832000Y-77470000D02*
X176022000Y-77470000D01*
X180467000Y-81915000D02*
X180467000Y-88285000D01*
X176022000Y-77470000D02*
X179578000Y-81026000D01*
X179578000Y-81026000D02*
X180467000Y-81915000D01*
X164211000Y-88285000D02*
X164318000Y-88285000D01*
X164318000Y-88285000D02*
X166624000Y-85979000D01*
X184277000Y-88011000D02*
X184277000Y-114300000D01*
X182245000Y-85979000D02*
X184277000Y-88011000D01*
X166624000Y-85979000D02*
X178308000Y-85979000D01*
X164211000Y-88285000D02*
X164211000Y-85852000D01*
X164211000Y-85852000D02*
X161798000Y-83439000D01*
X156638000Y-77724000D02*
X156638000Y-79295000D01*
X160782000Y-83439000D02*
X161798000Y-83439000D01*
X156638000Y-79295000D02*
X160782000Y-83439000D01*
X171577000Y-106807000D02*
X171577000Y-103966000D01*
X171577000Y-103966000D02*
X171704000Y-103839000D01*
X172491400Y-111099600D02*
X172491400Y-107721400D01*
X172491400Y-107721400D02*
X171577000Y-106807000D01*
X171577000Y-106807000D02*
X171704000Y-106807000D01*
X171704000Y-106807000D02*
X171577000Y-106807000D01*
X164719000Y-120523000D02*
X164719000Y-120904000D01*
X164719000Y-120904000D02*
X167640000Y-123825000D01*
X167640000Y-123825000D02*
X169672000Y-123825000D01*
X175768000Y-123825000D02*
X177571400Y-122021600D01*
X177571400Y-122021600D02*
X177571400Y-111099600D01*
X178054000Y-103839000D02*
X178054000Y-110617000D01*
X178054000Y-110617000D02*
X177571400Y-111099600D01*
X114892000Y-90170000D02*
X115062000Y-90170000D01*
X115062000Y-90170000D02*
X118440200Y-86791800D01*
X118440200Y-86791800D02*
X118440200Y-86690200D01*
X114892000Y-88138000D02*
X115062000Y-88138000D01*
X115062000Y-88138000D02*
X117094000Y-86106000D01*
X117094000Y-86106000D02*
X117094000Y-85496400D01*
X117094000Y-85496400D02*
X118440200Y-84150200D01*
X114892000Y-86106000D02*
X115316000Y-86106000D01*
X115316000Y-86106000D02*
X116586000Y-84836000D01*
X116586000Y-84836000D02*
X116586000Y-82296000D01*
X116586000Y-82296000D02*
X117271800Y-81610200D01*
X117271800Y-81610200D02*
X118440200Y-81610200D01*
X114892000Y-84074000D02*
X114892000Y-81196000D01*
X117017800Y-79070200D02*
X118440200Y-79070200D01*
X114892000Y-81196000D02*
X117017800Y-79070200D01*
M02*
