M48
;DRILL file {KiCad 4.0.7} date 06/11/18 20:36:09
;FORMAT={-:-/ absolute / inch / decimal}
FMAT,2
INCH,TZ
T1C0.016
T2C0.031
T3C0.039
T4C0.045
T5C0.060
T6C0.110
%
G90
G05
M72
T1
X5.04Y-3.43
X5.23Y-3.43
X5.44Y-3.88
X6.015Y-4.06
X6.045Y-3.97
X6.435Y-4.375
X6.5095Y-3.7455
X6.55Y-3.06
X6.575Y-4.265
X6.68Y-4.875
X6.685Y-4.34
X6.715Y-4.495
X6.755Y-4.205
X6.855Y-3.98
X6.92Y-4.875
X6.935Y-3.98
X7.02Y-3.385
X7.175Y-3.385
X7.255Y-4.5
T2
X4.975Y-3.807
X4.975Y-4.003
X5.Y-3.128
X5.1Y-3.128
X5.2Y-3.128
X5.225Y-3.807
X5.225Y-4.007
X5.448Y-3.43
X5.448Y-3.53
X5.448Y-3.63
T3
X4.663Y-3.113
X4.663Y-3.213
X4.663Y-3.313
X4.663Y-3.413
X4.663Y-3.513
X4.663Y-3.613
X4.663Y-3.713
X4.663Y-3.813
X4.663Y-3.913
X4.663Y-4.013
X4.893Y-3.113
X4.893Y-3.213
X4.893Y-3.313
X4.893Y-3.413
X4.893Y-3.513
X4.893Y-3.613
X4.893Y-3.713
X4.893Y-3.813
X4.893Y-3.913
X4.893Y-4.013
X5.885Y-4.645
X5.885Y-4.745
X5.885Y-5.045
X5.885Y-5.145
X5.985Y-4.645
X5.985Y-4.745
X5.985Y-5.045
X5.985Y-5.145
X6.08Y-3.575
X6.085Y-4.645
X6.085Y-4.745
X6.085Y-5.045
X6.085Y-5.145
X6.18Y-3.475
X6.185Y-4.645
X6.185Y-4.745
X6.185Y-5.045
X6.185Y-5.145
X6.285Y-4.645
X6.285Y-4.745
X6.285Y-5.045
X6.285Y-5.145
X6.37Y-3.285
X6.385Y-4.645
X6.385Y-4.745
X6.385Y-5.045
X6.385Y-5.145
X6.485Y-4.645
X6.485Y-4.745
X6.485Y-5.045
X6.485Y-5.145
X6.585Y-4.645
X6.585Y-4.745
X6.585Y-5.045
X6.585Y-5.145
X6.685Y-4.645
X6.685Y-4.745
X6.685Y-5.045
X6.685Y-5.145
X6.72Y-3.575
X6.785Y-4.645
X6.785Y-4.745
X6.785Y-5.045
X6.785Y-5.145
X6.82Y-3.475
X7.01Y-3.285
T4
X6.791Y-3.774
X6.791Y-4.374
X6.891Y-4.373
X6.991Y-3.774
X6.991Y-4.374
T5
X4.775Y-3.257
X4.775Y-3.78
X5.375Y-3.255
X5.375Y-3.78
T6
X6.617Y-4.075G85X6.617Y-4.075
G05
X7.167Y-4.075G85X7.167Y-4.075
G05
T0
M30
