G04 #@! TF.FileFunction,Legend,Bot*
%FSLAX46Y46*%
G04 Gerber Fmt 4.6, Leading zero omitted, Abs format (unit mm)*
G04 Created by KiCad (PCBNEW 4.0.7) date 05/31/18 22:49:15*
%MOMM*%
%LPD*%
G01*
G04 APERTURE LIST*
%ADD10C,0.100000*%
%ADD11C,0.120000*%
%ADD12C,0.150000*%
G04 APERTURE END LIST*
D10*
D11*
X178553000Y-103216000D02*
X178553000Y-102016000D01*
X176793000Y-102016000D02*
X176793000Y-103216000D01*
X172584000Y-103089000D02*
X172584000Y-101889000D01*
X170824000Y-101889000D02*
X170824000Y-103089000D01*
X117110200Y-100660200D02*
X117110200Y-77740200D01*
X117110200Y-77740200D02*
X119770200Y-77740200D01*
X119770200Y-77740200D02*
X119770200Y-100660200D01*
X119770200Y-100660200D02*
X117110200Y-100660200D01*
X117110200Y-101930200D02*
X117110200Y-103260200D01*
X117110200Y-103260200D02*
X118440200Y-103260200D01*
X122952200Y-100660200D02*
X122952200Y-77740200D01*
X122952200Y-77740200D02*
X125612200Y-77740200D01*
X125612200Y-77740200D02*
X125612200Y-100660200D01*
X125612200Y-100660200D02*
X122952200Y-100660200D01*
X122952200Y-101930200D02*
X122952200Y-103260200D01*
X122952200Y-103260200D02*
X124282200Y-103260200D01*
X179617000Y-90035000D02*
X179617000Y-89035000D01*
X181317000Y-89035000D02*
X181317000Y-90035000D01*
X163361000Y-90035000D02*
X163361000Y-89035000D01*
X165061000Y-89035000D02*
X165061000Y-90035000D01*
X157388000Y-78604000D02*
X158588000Y-78604000D01*
X158588000Y-76844000D02*
X157388000Y-76844000D01*
X174082000Y-76590000D02*
X172882000Y-76590000D01*
X172882000Y-78350000D02*
X174082000Y-78350000D01*
X113292000Y-84754000D02*
X114292000Y-84754000D01*
X114292000Y-83394000D02*
X113292000Y-83394000D01*
X113292000Y-88818000D02*
X114292000Y-88818000D01*
X114292000Y-87458000D02*
X113292000Y-87458000D01*
X113292000Y-86786000D02*
X114292000Y-86786000D01*
X114292000Y-85426000D02*
X113292000Y-85426000D01*
X113292000Y-90850000D02*
X114292000Y-90850000D01*
X114292000Y-89490000D02*
X113292000Y-89490000D01*
D12*
X176425381Y-102449334D02*
X175949190Y-102116000D01*
X176425381Y-101877905D02*
X175425381Y-101877905D01*
X175425381Y-102258858D01*
X175473000Y-102354096D01*
X175520619Y-102401715D01*
X175615857Y-102449334D01*
X175758714Y-102449334D01*
X175853952Y-102401715D01*
X175901571Y-102354096D01*
X175949190Y-102258858D01*
X175949190Y-101877905D01*
X176425381Y-103401715D02*
X176425381Y-102830286D01*
X176425381Y-103116000D02*
X175425381Y-103116000D01*
X175568238Y-103020762D01*
X175663476Y-102925524D01*
X175711095Y-102830286D01*
X170456381Y-102322334D02*
X169980190Y-101989000D01*
X170456381Y-101750905D02*
X169456381Y-101750905D01*
X169456381Y-102131858D01*
X169504000Y-102227096D01*
X169551619Y-102274715D01*
X169646857Y-102322334D01*
X169789714Y-102322334D01*
X169884952Y-102274715D01*
X169932571Y-102227096D01*
X169980190Y-102131858D01*
X169980190Y-101750905D01*
X169551619Y-102703286D02*
X169504000Y-102750905D01*
X169456381Y-102846143D01*
X169456381Y-103084239D01*
X169504000Y-103179477D01*
X169551619Y-103227096D01*
X169646857Y-103274715D01*
X169742095Y-103274715D01*
X169884952Y-103227096D01*
X170456381Y-102655667D01*
X170456381Y-103274715D01*
X118773533Y-103712581D02*
X118773533Y-104426867D01*
X118821153Y-104569724D01*
X118916391Y-104664962D01*
X119059248Y-104712581D01*
X119154486Y-104712581D01*
X117773533Y-104712581D02*
X118344962Y-104712581D01*
X118059248Y-104712581D02*
X118059248Y-103712581D01*
X118154486Y-103855438D01*
X118249724Y-103950676D01*
X118344962Y-103998295D01*
X124615533Y-103712581D02*
X124615533Y-104426867D01*
X124663153Y-104569724D01*
X124758391Y-104664962D01*
X124901248Y-104712581D01*
X124996486Y-104712581D01*
X124186962Y-103807819D02*
X124139343Y-103760200D01*
X124044105Y-103712581D01*
X123806009Y-103712581D01*
X123710771Y-103760200D01*
X123663152Y-103807819D01*
X123615533Y-103903057D01*
X123615533Y-103998295D01*
X123663152Y-104141152D01*
X124234581Y-104712581D01*
X123615533Y-104712581D01*
X179074143Y-89368334D02*
X179121762Y-89320715D01*
X179169381Y-89177858D01*
X179169381Y-89082620D01*
X179121762Y-88939762D01*
X179026524Y-88844524D01*
X178931286Y-88796905D01*
X178740810Y-88749286D01*
X178597952Y-88749286D01*
X178407476Y-88796905D01*
X178312238Y-88844524D01*
X178217000Y-88939762D01*
X178169381Y-89082620D01*
X178169381Y-89177858D01*
X178217000Y-89320715D01*
X178264619Y-89368334D01*
X179169381Y-90320715D02*
X179169381Y-89749286D01*
X179169381Y-90035000D02*
X178169381Y-90035000D01*
X178312238Y-89939762D01*
X178407476Y-89844524D01*
X178455095Y-89749286D01*
X162818143Y-89368334D02*
X162865762Y-89320715D01*
X162913381Y-89177858D01*
X162913381Y-89082620D01*
X162865762Y-88939762D01*
X162770524Y-88844524D01*
X162675286Y-88796905D01*
X162484810Y-88749286D01*
X162341952Y-88749286D01*
X162151476Y-88796905D01*
X162056238Y-88844524D01*
X161961000Y-88939762D01*
X161913381Y-89082620D01*
X161913381Y-89177858D01*
X161961000Y-89320715D01*
X162008619Y-89368334D01*
X162008619Y-89749286D02*
X161961000Y-89796905D01*
X161913381Y-89892143D01*
X161913381Y-90130239D01*
X161961000Y-90225477D01*
X162008619Y-90273096D01*
X162103857Y-90320715D01*
X162199095Y-90320715D01*
X162341952Y-90273096D01*
X162913381Y-89701667D01*
X162913381Y-90320715D01*
X158154666Y-76476381D02*
X158488000Y-76000190D01*
X158726095Y-76476381D02*
X158726095Y-75476381D01*
X158345142Y-75476381D01*
X158249904Y-75524000D01*
X158202285Y-75571619D01*
X158154666Y-75666857D01*
X158154666Y-75809714D01*
X158202285Y-75904952D01*
X158249904Y-75952571D01*
X158345142Y-76000190D01*
X158726095Y-76000190D01*
X157821333Y-75476381D02*
X157202285Y-75476381D01*
X157535619Y-75857333D01*
X157392761Y-75857333D01*
X157297523Y-75904952D01*
X157249904Y-75952571D01*
X157202285Y-76047810D01*
X157202285Y-76285905D01*
X157249904Y-76381143D01*
X157297523Y-76428762D01*
X157392761Y-76476381D01*
X157678476Y-76476381D01*
X157773714Y-76428762D01*
X157821333Y-76381143D01*
X173648666Y-79622381D02*
X173982000Y-79146190D01*
X174220095Y-79622381D02*
X174220095Y-78622381D01*
X173839142Y-78622381D01*
X173743904Y-78670000D01*
X173696285Y-78717619D01*
X173648666Y-78812857D01*
X173648666Y-78955714D01*
X173696285Y-79050952D01*
X173743904Y-79098571D01*
X173839142Y-79146190D01*
X174220095Y-79146190D01*
X172791523Y-78955714D02*
X172791523Y-79622381D01*
X173029619Y-78574762D02*
X173267714Y-79289048D01*
X172648666Y-79289048D01*
X110656666Y-84526381D02*
X110990000Y-84050190D01*
X111228095Y-84526381D02*
X111228095Y-83526381D01*
X110847142Y-83526381D01*
X110751904Y-83574000D01*
X110704285Y-83621619D01*
X110656666Y-83716857D01*
X110656666Y-83859714D01*
X110704285Y-83954952D01*
X110751904Y-84002571D01*
X110847142Y-84050190D01*
X111228095Y-84050190D01*
X109751904Y-83526381D02*
X110228095Y-83526381D01*
X110275714Y-84002571D01*
X110228095Y-83954952D01*
X110132857Y-83907333D01*
X109894761Y-83907333D01*
X109799523Y-83954952D01*
X109751904Y-84002571D01*
X109704285Y-84097810D01*
X109704285Y-84335905D01*
X109751904Y-84431143D01*
X109799523Y-84478762D01*
X109894761Y-84526381D01*
X110132857Y-84526381D01*
X110228095Y-84478762D01*
X110275714Y-84431143D01*
X110656666Y-88590381D02*
X110990000Y-88114190D01*
X111228095Y-88590381D02*
X111228095Y-87590381D01*
X110847142Y-87590381D01*
X110751904Y-87638000D01*
X110704285Y-87685619D01*
X110656666Y-87780857D01*
X110656666Y-87923714D01*
X110704285Y-88018952D01*
X110751904Y-88066571D01*
X110847142Y-88114190D01*
X111228095Y-88114190D01*
X109799523Y-87590381D02*
X109990000Y-87590381D01*
X110085238Y-87638000D01*
X110132857Y-87685619D01*
X110228095Y-87828476D01*
X110275714Y-88018952D01*
X110275714Y-88399905D01*
X110228095Y-88495143D01*
X110180476Y-88542762D01*
X110085238Y-88590381D01*
X109894761Y-88590381D01*
X109799523Y-88542762D01*
X109751904Y-88495143D01*
X109704285Y-88399905D01*
X109704285Y-88161810D01*
X109751904Y-88066571D01*
X109799523Y-88018952D01*
X109894761Y-87971333D01*
X110085238Y-87971333D01*
X110180476Y-88018952D01*
X110228095Y-88066571D01*
X110275714Y-88161810D01*
X110656666Y-86558381D02*
X110990000Y-86082190D01*
X111228095Y-86558381D02*
X111228095Y-85558381D01*
X110847142Y-85558381D01*
X110751904Y-85606000D01*
X110704285Y-85653619D01*
X110656666Y-85748857D01*
X110656666Y-85891714D01*
X110704285Y-85986952D01*
X110751904Y-86034571D01*
X110847142Y-86082190D01*
X111228095Y-86082190D01*
X110323333Y-85558381D02*
X109656666Y-85558381D01*
X110085238Y-86558381D01*
X110656666Y-90622381D02*
X110990000Y-90146190D01*
X111228095Y-90622381D02*
X111228095Y-89622381D01*
X110847142Y-89622381D01*
X110751904Y-89670000D01*
X110704285Y-89717619D01*
X110656666Y-89812857D01*
X110656666Y-89955714D01*
X110704285Y-90050952D01*
X110751904Y-90098571D01*
X110847142Y-90146190D01*
X111228095Y-90146190D01*
X110085238Y-90050952D02*
X110180476Y-90003333D01*
X110228095Y-89955714D01*
X110275714Y-89860476D01*
X110275714Y-89812857D01*
X110228095Y-89717619D01*
X110180476Y-89670000D01*
X110085238Y-89622381D01*
X109894761Y-89622381D01*
X109799523Y-89670000D01*
X109751904Y-89717619D01*
X109704285Y-89812857D01*
X109704285Y-89860476D01*
X109751904Y-89955714D01*
X109799523Y-90003333D01*
X109894761Y-90050952D01*
X110085238Y-90050952D01*
X110180476Y-90098571D01*
X110228095Y-90146190D01*
X110275714Y-90241429D01*
X110275714Y-90431905D01*
X110228095Y-90527143D01*
X110180476Y-90574762D01*
X110085238Y-90622381D01*
X109894761Y-90622381D01*
X109799523Y-90574762D01*
X109751904Y-90527143D01*
X109704285Y-90431905D01*
X109704285Y-90241429D01*
X109751904Y-90146190D01*
X109799523Y-90098571D01*
X109894761Y-90050952D01*
M02*
